<?xml version="1.0" encoding="utf-8"?>
<!-- Generator: Adobe Illustrator 27.5.0, SVG Export Plug-In . SVG Version: 6.00 Build 0)  -->
<svg version="1.1" id="Capa_2" xmlns="http://www.w3.org/2000/svg" xmlns:xlink="http://www.w3.org/1999/xlink" x="0px" y="0px"
	 viewBox="0 0 2122 2122" style="enable-background:new 0 0 2122 2122;" xml:space="preserve">
<path style="fill:#F4A841;" d="M1907.565,1072.969c-0.844-25.836-3.239-51.301-5.234-73.807
	c-4.707-53.053-28.72-100.905-46.181-150.431c-7.863-22.303-10.371-48.247-20.658-68.752
	c-10.668-21.266-26.414-44.848-39.722-64.904c-10.876-16.39-21.588-34.475-30.76-52.167c-11.711-22.592-21.131-47.169-32.135-70.216
	c-8.7-18.222-20.569-33.057-33.364-50.173c-25.793-34.5-66.79-46.638-96.89-78.203c-23.49-24.636-40.956-66.945-74.776-79.501
	c-34.405-12.773-67.81-19.949-101.395-34.197c-15.233-6.462-31.815-9.728-46.606-16.924c-24.113-11.731-43.376-30.196-68.747-38.655
	c-30.72-10.243-64.981-7.318-98.631-7.871c-11.609-1.865-23.561-2.497-35.656-2.685c-5.021-0.794-9.992-1.81-14.898-3.108
	c-40.232-10.65-83.056-36.476-126.653-30.448c-6.084,0.841-11.924,2.51-17.638,4.639c-19.629-6.174-39.605-10.188-59.744-7.403
	c-26.171,3.62-47.846,22.527-74.258,27.756c-21.403,4.237-42.497,5.171-63.797,7.973c-22.227,2.925-40.749,14.743-61.314,23.062
	c-83.809,33.901-172.544,83.744-242.216,141.521c-16.57,13.742-23.79,25.181-32.783,43.157
	c-15.373,30.731-34.857,43.829-65.035,58.448c-31.811,15.411-56.45,37.153-58.625,73.864c-0.817,13.813-1.028,29.214-7.441,41.843
	c-7.587,14.945-25.592,22.065-37.514,33.157c-15.958,14.843-28.796,32.833-34.772,53.932c-7.225,25.508-0.546,52.54-6.032,79.128
	c-4.47,21.667-18.063,38.546-30.159,55.616c-16.004,22.584-17.724,55.567-18.142,82.834c-0.672,43.922-3.191,88.204-10.392,130.273
	c-3.845,22.468-1.022,52.314,0.079,75.135c1.72,35.62,35.063,59.519,40.596,93.575c7.347,45.235-3.728,85.775,23.865,126.998
	c13.893,20.755,34.468,36.495,45.624,59.2c9.979,20.311,3.891,41.424,11.854,61.775c17.479,44.674,68.973,76.629,107.008,102.546
	c40.727,27.751,78.898,57.379,112.949,93.116c31.995,33.579,66.152,47.629,107.887,67.569c17.231,8.232,30.294,7.826,47.847,13.523
	c40.803,13.241,74.33,51.894,117.345,65.801c36.144,11.685,74.607,12.139,112.536,10.815c36.654,5.39,74.666,2.857,111.337,1.345
	c50.114-2.067,100.288-2.815,150.146-8.968c44.214-5.456,105.25,3.204,144.439-14.423c33.93-15.262,59.512-44.764,92.207-62.239
	c26.569-14.2,67.945-14.411,89.578-36.721c19.536-20.146,25.262-50.513,47.579-70.703c24.137-21.838,63.113-24.749,90.026-44.221
	c26.94-19.492,40.043-31.291,50.25-60.268c8.675-24.628,27.443-42.608,42.938-62.836c18.631-24.323,22.593-46.554,29.917-75.678
	c9.26-36.824,32.611-63.61,51.715-93.764c14.78-23.33,23.401-49.344,26.746-78.026c3.577-30.667,15.71-56.995,25.58-84.234
	C1906.744,1148.856,1908.791,1110.52,1907.565,1072.969z"/>
<path style="fill:#F49829;" d="M1907.565,1072.969c-0.344-10.496-0.942-20.93-1.665-31.131c-0.167-2.353-0.341-4.695-0.52-7.021
	c-0.119-1.551-0.24-3.095-0.363-4.633c-0.37-4.612-0.755-9.161-1.145-13.628c-0.129-1.489-0.259-2.969-0.388-4.44
	c-0.098-1.102-0.195-2.2-0.292-3.291c-0.291-3.275-0.58-6.498-0.86-9.663c-1.051-11.857-3.068-23.454-5.759-34.868
	c-0.352-1.489-0.714-2.974-1.088-4.457c-0.747-2.966-1.537-5.919-2.365-8.862c-0.602-2.14-1.225-4.275-1.866-6.405
	c-0.641-2.13-1.301-4.255-1.977-6.375c-0.901-2.827-1.831-5.647-2.786-8.46c-0.881-2.596-1.782-5.187-2.7-7.772
	c-0.919-2.587-1.855-5.168-2.804-7.746c-0.178-0.482-0.356-0.965-0.535-1.446c-0.714-1.929-1.435-3.854-2.162-5.78
	c-0.363-0.962-0.727-1.924-1.094-2.886c-0.586-1.539-1.175-3.077-1.765-4.614c-0.592-1.537-1.185-3.074-1.78-4.609
	c-0.297-0.768-0.596-1.536-0.893-2.304c-0.894-2.303-1.791-4.605-2.687-6.908c-1.196-3.07-2.39-6.14-3.579-9.211
	c-0.89-2.303-1.778-4.607-2.659-6.913c-0.587-1.537-1.172-3.075-1.753-4.614c-2.033-5.386-4.021-10.783-5.931-16.2
	c-1.105-3.137-2.106-6.345-3.036-9.6c-0.413-1.446-0.812-2.903-1.202-4.365l-0.29-1.099c-0.384-1.467-0.759-2.939-1.127-4.416
	l-0.275-1.108c-0.548-2.219-1.082-4.446-1.615-6.674l-0.265-1.114c-0.267-1.114-0.534-2.227-0.8-3.341
	c-0.179-0.742-0.357-1.483-0.537-2.224c-0.361-1.481-0.723-2.959-1.095-4.432l-0.279-1.104c-1.967-7.72-4.153-15.281-7.022-22.364
	c-0.956-2.361-1.988-4.669-3.113-6.911c-1-1.994-2.045-4.008-3.128-6.037c-1.807-3.383-3.719-6.809-5.708-10.256
	c-0.796-1.379-1.605-2.76-2.425-4.144c-0.818-1.384-1.649-2.77-2.487-4.156c-1.677-2.773-3.39-5.547-5.123-8.312
	c-0.868-1.382-1.74-2.764-2.614-4.14c-2.187-3.441-4.397-6.858-6.596-10.229c-0.881-1.348-1.76-2.69-2.636-4.022
	c-0.877-1.333-1.749-2.656-2.616-3.97c-0.868-1.313-1.732-2.616-2.587-3.908c-1.285-1.937-2.554-3.849-3.802-5.729
	c-0.519-0.783-1.038-1.573-1.557-2.363l-0.48-0.729c-3.416-5.223-6.805-10.602-10.128-16.07c-4.594-7.561-9.06-15.293-13.281-23.025
	c-1.82-3.331-3.593-6.662-5.313-9.979c-1.83-3.53-3.604-7.108-5.337-10.722c-1.039-2.168-2.063-4.348-3.077-6.539
	c-0.339-0.73-0.675-1.461-1.01-2.194c-0.671-1.465-1.336-2.932-1.999-4.404c-2.649-5.885-5.237-11.82-7.827-17.746
	c-1.941-4.446-3.884-8.888-5.853-13.303c-1.312-2.944-2.634-5.875-3.978-8.788c-0.671-1.457-1.347-2.909-2.029-4.354
	c-0.341-0.723-0.683-1.444-1.027-2.165c-0.271-0.57-0.547-1.136-0.825-1.699c-1.112-2.252-2.272-4.454-3.477-6.617
	c-3.915-7.029-8.293-13.646-12.988-20.229c-0.722-1.012-1.452-2.024-2.189-3.037c-0.737-1.013-1.48-2.026-2.23-3.041
	c-1.124-1.523-2.263-3.051-3.414-4.587c-2.687-3.586-5.442-7.221-8.241-10.964c-12.896-17.25-29.594-28.911-46.831-40.203
	c-2.153-1.412-4.317-2.818-6.482-4.228c-0.541-0.353-1.082-0.706-1.624-1.059c-14.617-9.539-29.256-19.398-41.953-32.715
	l-0.839-0.891l-0.159-0.169l-0.793-0.865l-0.193-0.212l-0.744-0.828l-0.285-0.324l-0.498-0.567l-0.411-0.472l-0.493-0.574
	c-2.291-2.682-4.537-5.511-6.759-8.44l-0.519-0.684c-0.345-0.458-0.689-0.919-1.033-1.382l-0.515-0.695
	c-0.515-0.696-1.031-1.398-1.545-2.104c-1.027-1.41-2.052-2.837-3.078-4.275c-0.854-1.199-1.707-2.405-2.562-3.616
	c-0.857-1.211-1.713-2.427-2.571-3.645c-1.202-1.705-2.411-3.414-3.627-5.12c-0.347-0.487-0.696-0.974-1.044-1.461
	c-0.35-0.487-0.699-0.973-1.05-1.458c-0.526-0.728-1.055-1.455-1.585-2.18c-0.353-0.483-0.708-0.965-1.063-1.446
	c-0.711-0.961-1.427-1.92-2.147-2.871l-0.542-0.713c-0.362-0.473-0.724-0.947-1.089-1.417c-1.639-2.119-3.307-4.204-5.01-6.236
	c-0.757-0.902-1.521-1.796-2.293-2.678l-1.163-1.313c-0.781-0.87-1.568-1.726-2.366-2.569c-0.598-0.633-1.199-1.257-1.807-1.873
	c-0.608-0.616-1.221-1.223-1.839-1.822l-0.62-0.595l-1.252-1.172c-1.89-1.74-3.832-3.393-5.834-4.944
	c-0.444-0.344-0.893-0.683-1.344-1.018c-4.961-3.675-10.291-6.712-16.104-8.87c-2.151-0.798-4.297-1.575-6.439-2.332
	c-3.214-1.136-6.42-2.231-9.619-3.294c-0.534-0.177-1.067-0.353-1.599-0.528c-3.197-1.052-6.386-2.074-9.57-3.077
	c-1.061-0.334-2.122-0.667-3.181-0.997c-1.06-0.33-2.119-0.658-3.177-0.985c-5.293-1.635-10.571-3.235-15.839-4.847
	c-1.58-0.484-3.16-0.969-4.738-1.457c-0.526-0.162-1.052-0.325-1.578-0.488c-2.104-0.653-4.206-1.31-6.308-1.976
	c-13.134-4.163-26.225-8.65-39.345-14.215c-2.856-1.212-5.76-2.311-8.69-3.345c-1.953-0.689-3.918-1.35-5.889-1.995
	c-0.985-0.323-1.973-0.641-2.961-0.958c-0.987-0.317-1.976-0.632-2.964-0.946c-0.989-0.314-1.977-0.628-2.964-0.944
	c-0.494-0.158-0.988-0.315-1.481-0.474c-4.931-1.587-9.83-3.23-14.604-5.15c-0.478-0.193-0.954-0.387-1.429-0.585
	c-1.899-0.79-3.776-1.629-5.625-2.528c-2.261-1.1-4.479-2.259-6.662-3.463c-1.457-0.803-2.898-1.625-4.328-2.465
	c-0.714-0.42-1.425-0.844-2.134-1.271c-0.709-0.427-1.415-0.858-2.118-1.292c-2.111-1.301-4.201-2.628-6.278-3.969
	c-1.385-0.894-2.764-1.794-4.139-2.696l-1.032-0.678c-0.687-0.451-1.374-0.902-2.061-1.353c-1.03-0.676-2.059-1.352-3.089-2.025
	c-8.928-5.837-17.902-11.489-27.658-15.836l-1.13-0.496c-1.51-0.653-3.04-1.274-4.592-1.859c-1.163-0.439-2.338-0.858-3.528-1.254
	l-1.175-0.385l-0.436-0.138l-0.737-0.233l-0.54-0.165l-0.658-0.199l-0.535-0.159l-0.64-0.185l-0.582-0.167l-0.636-0.178l-0.543-0.15
	l-0.841-0.224l-0.346-0.093l-1.157-0.297l-0.626-0.155l-0.553-0.136l-0.689-0.164l-0.507-0.12l-0.683-0.156l-0.498-0.112
	l-0.742-0.164l-0.379-0.082l-0.86-0.182l-0.099-0.021c-1.463-0.303-2.933-0.584-4.408-0.844l-0.029-0.005
	c-21.568-3.798-44.369-3.128-67.128-3.091l0.033,0.009c12.032,3.303,24.038,6.693,35.962,10.376
	c70.85,21.883,138.117,53.504,187.509,110.496c26.604,30.698,49.785,63.589,82.415,88.458
	c32.577,24.827,69.675,42.899,103.31,66.171c49.622,34.334,92.643,83.022,117.084,138.336
	c10.726,24.276,17.861,49.604,22.976,75.422c-11.185,48.666-32.731,94.616-65.85,132.902c-1.559,1.801-3.14,3.583-4.74,5.348
	c-1.113,4.672-2.43,8.452-3.875,10.937c-4.631,7.969-11.454,11.55-19.12,12.577c-24.755,24.035-50.661,47.049-68.642,76.905
	c-25.35,42.091-30.822,90.449-41.21,137.496c-10.244,46.393-23.939,92.374-43.592,135.706
	c-19.288,42.526-45.175,83.577-81.604,113.449c-17.71,14.525-37.68,26.01-59.474,33.215c-24.904,8.234-53.008,12.243-78.999,8.211
	c-16.547-2.566-32.217-8.173-47.703-14.335l-0.024-0.129c-2.492-12.829-8.75-26.601-12.975-30.489
	c-9.137-8.406-21.082,0.275-28.919,6.145c-2.754,2.063-5.505,3.896-8.094,5.917c-22.51-6.188-46.585-8.608-69.266-3.545
	c-29.123,6.501-53.975,23.586-78.185,40.232c-27.926,19.203-56.163,38.018-86.723,52.835c-13.311,6.454-27.004,12.243-41.034,16.933
	c-7.953-3.611-18.6-5.355-29.926-5.772c-25.591-0.942-54.652,4.885-63.948,11.222c-2.097,1.43-3.854,3.002-5.308,4.69
	c-18.473-2.846-36.551-8.594-52.212-17.802c-23.76-13.97-42.129-34.752-63.163-52.192c-22.326-18.512-49.663-29.937-77.129-38.554
	c-26.133-8.198-53.33-14.588-77.393-28.115c-27.175-15.274-49.761-39.806-64.692-67.055c-14.722-26.869-20.65-56.659-23.756-86.853
	c-3.025-29.411-2.302-60.969-12.31-89.092c-18.045-50.718-64.986-83.637-88.549-131.205c-13.299-26.844-17.161-55.253-12.046-84.768
	c5.133-29.6,17.646-57.195,26.211-85.838c4.119-13.776,7.599-28.034,7.869-42.477c0.297-15.946-1.652-32.113-3.033-47.984
	c-1.499-17.224-3.163-34.479-4.261-51.758l1.589-1.557c11.923-11.091,29.927-18.211,37.516-33.157
	c6.411-12.629,6.622-28.03,7.441-41.842c2.173-36.711,26.814-58.453,58.625-73.864c30.177-14.619,49.661-27.717,65.034-58.449
	c8.993-17.977,16.213-29.415,32.784-43.157c69.672-57.776,158.406-107.619,242.215-141.521
	c20.565-8.319,39.088-20.138,61.316-23.062c21.299-2.802,42.392-3.736,63.795-7.973c20.272-4.013,37.755-16.085,56.621-23.117
	c-19.63-6.175-39.605-10.188-59.744-7.403c-26.172,3.619-47.848,22.527-74.259,27.756c-21.403,4.237-42.496,5.171-63.795,7.973
	c-22.228,2.925-40.75,14.743-61.316,23.062c-83.809,33.901-172.544,83.744-242.215,141.52
	c-16.572,13.742-23.792,25.18-32.784,43.157c-15.373,30.731-34.857,43.829-65.034,58.448
	c-31.813,15.411-56.452,37.153-58.625,73.864c-0.818,13.813-1.029,29.213-7.441,41.842c-7.588,14.945-25.592,22.066-37.516,33.157
	c-15.957,14.843-28.796,32.834-34.772,53.933c-7.225,25.508-0.544,52.54-6.03,79.128c-4.472,21.667-18.063,38.545-30.16,55.616
	c-16.005,22.584-17.725,55.567-18.143,82.834c-0.672,43.922-3.191,88.204-10.391,130.273c-3.846,22.468-1.022,52.314,0.079,75.135
	c1.719,35.621,35.063,59.519,40.595,93.576c7.348,45.234-3.727,85.775,23.866,126.997c13.892,20.756,34.466,36.495,45.622,59.201
	c9.979,20.31,3.891,41.424,11.854,61.775c17.479,44.674,68.973,76.628,107.008,102.546c40.727,27.751,78.898,57.379,112.95,93.116
	c31.995,33.579,66.153,47.629,107.886,67.568c17.231,8.233,30.294,7.827,47.849,13.523c40.801,13.241,74.329,51.894,117.343,65.801
	c36.144,11.685,74.608,12.139,112.537,10.815l-0.594-0.089l0.989,0.147c16.804,2.445,33.893,3.232,51.004,3.222
	c11.3-0.007,22.609-0.361,33.853-0.814c2.186-0.088,4.37-0.18,6.551-0.274c6.543-0.282,13.06-0.581,19.534-0.848
	c14.095-0.581,28.193-1.058,42.29-1.58c6.265-0.232,12.529-0.473,18.792-0.736c1.565-0.066,3.131-0.133,4.697-0.202
	c6.262-0.275,12.522-0.575,18.779-0.913c1.565-0.085,3.129-0.173,4.693-0.262c3.128-0.18,6.256-0.369,9.384-0.571
	c4.689-0.303,9.378-0.634,14.066-0.996c4.687-0.363,9.371-0.758,14.054-1.193c3.123-0.289,6.242-0.596,9.361-0.92
	c1.561-0.163,3.121-0.329,4.68-0.501c3.118-0.344,6.236-0.707,9.352-1.092c3.06-0.378,6.201-0.688,9.409-0.943
	c1.071-0.085,2.148-0.165,3.231-0.238c0.619-0.041,1.241-0.082,1.865-0.12c1.664-0.104,3.344-0.194,5.038-0.274
	c0.753-0.036,1.508-0.069,2.266-0.101c1.515-0.064,3.043-0.12,4.58-0.17c2.303-0.073,4.63-0.134,6.972-0.183
	c2.342-0.049,4.701-0.09,7.074-0.122c12.655-0.178,25.681-0.184,38.474-0.65c2.4-0.086,4.789-0.19,7.168-0.314
	c1.586-0.082,3.166-0.173,4.739-0.275c3.934-0.255,7.827-0.573,11.66-0.974c1.533-0.161,3.057-0.335,4.57-0.524
	c1.514-0.189,3.016-0.392,4.507-0.61c4.471-0.658,8.836-1.457,13.062-2.431c0.704-0.164,1.404-0.33,2.1-0.503
	c1.394-0.344,2.77-0.709,4.129-1.096c2.04-0.58,4.04-1.207,5.999-1.886c2.61-0.906,5.145-1.905,7.594-3.007
	c1.06-0.477,2.112-0.968,3.157-1.472c19.324-9.323,36.017-23.131,53.071-36.349c0.46-0.357,0.922-0.714,1.382-1.071
	c2.109-1.628,4.226-3.245,6.356-4.842c0.546-0.41,1.093-0.818,1.641-1.224c2.185-1.623,4.383-3.221,6.604-4.784
	c1.387-0.977,2.783-1.942,4.189-2.89c0.64-0.432,1.281-0.86,1.924-1.285l0.906-0.595c1.049-0.684,2.102-1.359,3.162-2.022
	c0.676-0.423,1.354-0.842,2.035-1.256c0.695-0.423,1.393-0.841,2.095-1.253c0.732-0.432,1.469-0.858,2.208-1.278l1.333-0.748
	c0.711-0.395,1.425-0.787,2.144-1.171l1.257-0.656c26.603-13.556,67.028-14.104,88.321-36.065
	c3.968-4.092,7.367-8.606,10.451-13.371c1.186-1.833,2.324-3.703,3.432-5.599c0.443-0.759,0.881-1.522,1.315-2.289
	c0.433-0.767,0.862-1.538,1.289-2.312c1.278-2.322,2.527-4.671,3.771-7.032c0.933-1.77,1.864-3.548,2.803-5.324
	c0.469-0.888,0.94-1.776,1.415-2.664c0.711-1.331,1.431-2.659,2.163-3.981l0.735-1.321c0.738-1.319,1.492-2.631,2.265-3.934
	c0.306-0.516,0.613-1.03,0.925-1.543l0.469-0.767c1.139-1.853,2.321-3.682,3.557-5.48c2.32-3.372,4.836-6.631,7.632-9.72
	c0.559-0.619,1.129-1.229,1.713-1.833c0.582-0.604,1.176-1.2,1.783-1.789c0.608-0.589,1.228-1.17,1.861-1.743
	c5.421-4.905,11.591-8.855,18.206-12.252l0.865-0.441c0.578-0.291,1.16-0.578,1.745-0.862c0.585-0.284,1.172-0.564,1.764-0.84
	c1.181-0.552,2.374-1.091,3.576-1.617c1.442-0.631,2.899-1.246,4.368-1.846c0.979-0.401,1.964-0.796,2.952-1.185
	c0.988-0.39,1.982-0.774,2.976-1.155c0.997-0.38,1.995-0.758,2.998-1.131c1.001-0.374,2.006-0.746,3.012-1.116
	c0.503-0.184,1.007-0.369,1.512-0.553c1.007-0.368,2.017-0.735,3.026-1.102c0.505-0.183,1.011-0.366,1.515-0.55
	c1.011-0.367,2.021-0.734,3.03-1.104c13.627-4.985,27.129-10.252,38.483-18.467c2.105-1.523,4.125-2.999,6.066-4.439
	c0.777-0.577,1.541-1.147,2.292-1.713c1.503-1.132,2.957-2.244,4.363-3.343c1.055-0.825,2.084-1.641,3.088-2.453
	c0.669-0.541,1.326-1.08,1.974-1.618c0.646-0.538,1.283-1.074,1.909-1.609c1.564-1.339,3.062-2.673,4.501-4.014
	c0.862-0.805,1.704-1.614,2.524-2.426c0.649-0.644,1.286-1.291,1.91-1.943c0.625-0.652,1.236-1.307,1.836-1.97
	c2.887-3.187,5.501-6.508,7.904-10.108c0.655-0.981,1.295-1.984,1.919-3.01c1.042-1.709,2.044-3.485,3.011-5.338
	c0.388-0.742,0.769-1.496,1.145-2.263l0.56-1.161c0.581-1.221,1.149-2.474,1.707-3.766c0.307-0.711,0.61-1.432,0.911-2.165
	c0.902-2.2,1.776-4.506,2.63-6.931c0.72-2.044,1.509-4.043,2.362-6c1.873-4.307,4.046-8.417,6.437-12.384
	c0.409-0.68,0.824-1.354,1.246-2.025c0.422-0.671,0.85-1.338,1.283-2.001c0.432-0.663,0.871-1.323,1.316-1.979
	c0.445-0.656,0.893-1.309,1.347-1.959l0.683-0.972c0.459-0.647,0.922-1.291,1.388-1.932c0.468-0.641,0.939-1.279,1.414-1.915
	c0.95-1.272,1.915-2.534,2.892-3.789c0.488-0.628,0.98-1.254,1.474-1.877c0.741-0.935,1.487-1.867,2.238-2.797
	c0.499-0.62,1.002-1.238,1.506-1.855c0.756-0.927,1.515-1.85,2.276-2.773c0.508-0.616,1.016-1.231,1.524-1.845
	c1.526-1.844,3.057-3.685,4.581-5.532c0.508-0.615,1.015-1.232,1.52-1.848c2.53-3.085,5.031-6.191,7.452-9.351
	c18.631-24.323,22.593-46.554,29.917-75.678c1.158-4.603,2.535-9.05,4.097-13.365c0.391-1.079,0.793-2.149,1.206-3.212
	c0.413-1.063,0.837-2.118,1.27-3.166c0.585-1.41,1.19-2.806,1.812-4.191l0.535-1.18c11.376-24.844,28.307-45.779,42.795-68.649
	c2.309-3.646,4.469-7.357,6.481-11.133c1.207-2.266,2.361-4.555,3.464-6.868c0.321-0.675,0.638-1.351,0.951-2.03
	c0.781-1.697,1.535-3.406,2.262-5.127c0.363-0.861,0.719-1.725,1.07-2.592c0.348-0.867,0.692-1.737,1.028-2.61
	c1.344-3.493,2.58-7.037,3.709-10.63c0.452-1.437,0.886-2.883,1.305-4.335c0.627-2.18,1.217-4.378,1.769-6.594
	c0.631-2.532,1.213-5.089,1.747-7.669c1.246-6.018,2.23-12.165,2.962-18.439c0.894-7.667,2.323-15.063,4.117-22.269
	c0.786-3.153,1.641-6.27,2.552-9.357c0.26-0.882,0.525-1.761,0.794-2.64l0.407-1.314c1.622-5.197,3.387-10.318,5.228-15.396
	c1.012-2.793,2.046-5.574,3.091-8.347c0.392-1.04,0.786-2.079,1.18-3.117c2.76-7.268,5.566-14.499,8.21-21.795
	c1.192-3.289,2.281-6.658,3.274-10.096c0.33-1.147,0.652-2.301,0.961-3.462c0.413-1.549,0.809-3.111,1.185-4.685
	c0.503-2.099,0.973-4.22,1.414-6.362c0.11-0.535,0.218-1.073,0.324-1.61c0.427-2.152,0.821-4.324,1.189-6.512
	c0.275-1.642,0.534-3.293,0.777-4.954c0.243-1.661,0.472-3.331,0.686-5.01c0.285-2.238,0.545-4.49,0.777-6.756
	c0.117-1.133,0.228-2.269,0.332-3.408c0.052-0.57,0.103-1.139,0.153-1.71c0.147-1.713,0.282-3.432,0.404-5.158
	C1908.018,1104.791,1908.082,1088.81,1907.565,1072.969z"/>
<path style="fill:#E27D22;" d="M1907.565,1072.969c-0.344-10.496-0.942-20.93-1.665-31.131c-0.167-2.353-0.341-4.695-0.52-7.021
	c-0.119-1.551-0.24-3.095-0.363-4.633c-0.37-4.612-0.755-9.161-1.145-13.628c-0.129-1.489-0.259-2.969-0.388-4.44
	c-0.098-1.102-0.195-2.2-0.292-3.291c-0.291-3.275-0.58-6.498-0.86-9.663c-1.051-11.857-3.068-23.454-5.759-34.868
	c-0.352-1.489-0.714-2.974-1.088-4.457c-0.747-2.966-1.537-5.919-2.365-8.862c-0.602-2.14-1.225-4.275-1.866-6.405
	c-0.641-2.13-1.301-4.255-1.977-6.375c-0.901-2.827-1.831-5.647-2.786-8.46c-0.881-2.596-1.782-5.187-2.7-7.772
	c-0.919-2.587-1.855-5.168-2.804-7.746c-0.178-0.482-0.356-0.965-0.535-1.446c-0.714-1.929-1.435-3.854-2.162-5.78
	c-0.363-0.962-0.727-1.924-1.094-2.886c-0.586-1.539-1.175-3.077-1.765-4.614c-0.592-1.537-1.185-3.074-1.78-4.609
	c-0.297-0.768-0.596-1.536-0.893-2.304c-0.894-2.303-1.791-4.605-2.687-6.908c-1.196-3.07-2.39-6.14-3.579-9.211
	c-0.89-2.303-1.778-4.607-2.659-6.913c-0.587-1.537-1.172-3.075-1.753-4.614c-2.033-5.386-4.021-10.783-5.931-16.2
	c-1.105-3.137-2.106-6.345-3.036-9.6c-0.413-1.446-0.812-2.903-1.202-4.365l-0.29-1.099c-0.384-1.467-0.759-2.939-1.127-4.416
	l-0.275-1.108c-0.548-2.219-1.082-4.446-1.615-6.674l-0.265-1.114c-0.267-1.114-0.534-2.227-0.8-3.341
	c-0.179-0.742-0.357-1.483-0.537-2.224c-0.361-1.481-0.723-2.959-1.095-4.432l-0.279-1.104c-1.967-7.72-4.153-15.281-7.022-22.364
	c-0.956-2.361-1.988-4.669-3.113-6.911c-1-1.994-2.045-4.008-3.128-6.037c-1.807-3.383-3.719-6.809-5.708-10.256
	c-0.796-1.379-1.605-2.76-2.425-4.144c-0.818-1.384-1.649-2.77-2.487-4.156c-1.677-2.773-3.39-5.547-5.123-8.312
	c-0.868-1.382-1.74-2.764-2.614-4.14c-2.187-3.441-4.397-6.858-6.596-10.229c-0.881-1.348-1.76-2.69-2.636-4.022
	c-0.877-1.333-1.749-2.656-2.616-3.97c-0.868-1.313-1.732-2.616-2.587-3.908c-1.285-1.937-2.554-3.849-3.802-5.729
	c-0.519-0.783-1.038-1.573-1.557-2.363l-0.48-0.729c-3.416-5.223-6.805-10.602-10.128-16.07c-4.594-7.561-9.06-15.293-13.281-23.025
	c-1.82-3.331-3.593-6.662-5.313-9.979c-1.83-3.53-3.604-7.108-5.337-10.722c-1.039-2.168-2.063-4.348-3.077-6.539
	c-0.339-0.73-0.675-1.461-1.01-2.194c-0.671-1.465-1.336-2.932-1.999-4.404c-2.649-5.885-5.237-11.82-7.827-17.746
	c-1.941-4.446-3.884-8.888-5.853-13.303c-1.312-2.944-2.634-5.875-3.978-8.788c-0.671-1.457-1.347-2.909-2.029-4.354
	c-0.341-0.723-0.683-1.444-1.027-2.165c-0.271-0.57-0.547-1.136-0.825-1.699c-1.112-2.252-2.272-4.454-3.477-6.617
	c-3.915-7.029-8.293-13.646-12.988-20.229c-0.722-1.012-1.452-2.024-2.189-3.037c-0.737-1.013-1.48-2.026-2.23-3.041
	c-1.124-1.523-2.263-3.051-3.414-4.587c-2.687-3.586-5.442-7.221-8.241-10.964c-12.896-17.25-29.594-28.911-46.831-40.203
	c-2.153-1.412-4.317-2.818-6.482-4.228c-0.541-0.353-1.082-0.706-1.624-1.059c-14.617-9.539-29.256-19.398-41.953-32.715
	l-0.839-0.891l-0.159-0.169l-0.793-0.865l-0.193-0.212l-0.744-0.828l-0.285-0.324l-0.498-0.567l-0.411-0.472l-0.493-0.574
	c-2.291-2.682-4.537-5.511-6.759-8.44l-0.519-0.684c-0.345-0.458-0.689-0.919-1.033-1.382l-0.515-0.695
	c-0.515-0.696-1.031-1.398-1.545-2.104c-1.027-1.41-2.052-2.837-3.078-4.275c-0.854-1.199-1.707-2.405-2.562-3.616
	c-0.857-1.211-1.713-2.427-2.571-3.645c-1.202-1.705-2.411-3.414-3.627-5.12c-0.347-0.487-0.696-0.974-1.044-1.461
	c-0.35-0.487-0.699-0.973-1.05-1.458c-0.526-0.728-1.055-1.455-1.585-2.18c-0.353-0.483-0.708-0.965-1.063-1.446
	c-0.711-0.961-1.427-1.92-2.147-2.871l-0.542-0.713c-0.362-0.473-0.724-0.947-1.089-1.417c-1.639-2.119-3.307-4.204-5.01-6.236
	c-0.757-0.902-1.521-1.796-2.293-2.678l-1.163-1.313c-0.781-0.87-1.568-1.726-2.366-2.569c-0.598-0.633-1.199-1.257-1.807-1.873
	c-0.608-0.616-1.221-1.223-1.839-1.822l-0.62-0.595l-1.252-1.172c-1.89-1.74-3.832-3.393-5.834-4.944
	c-0.444-0.344-0.893-0.683-1.344-1.018c-4.961-3.675-10.291-6.712-16.104-8.87c-2.151-0.798-4.297-1.575-6.439-2.332
	c-3.214-1.136-6.42-2.231-9.619-3.294c-0.534-0.177-1.067-0.353-1.599-0.528c-3.197-1.052-6.386-2.074-9.57-3.077
	c-1.061-0.334-2.122-0.667-3.181-0.997c-1.06-0.33-2.119-0.658-3.177-0.985c-5.293-1.635-10.571-3.235-15.839-4.847
	c-1.58-0.484-3.16-0.969-4.738-1.457c-0.526-0.162-1.052-0.325-1.578-0.488c-2.104-0.653-4.206-1.31-6.308-1.976
	c-13.134-4.163-26.225-8.65-39.345-14.215c-2.856-1.212-5.76-2.311-8.69-3.345c-1.953-0.689-3.918-1.35-5.889-1.995
	c-0.985-0.323-1.973-0.641-2.961-0.958c-0.987-0.317-1.976-0.632-2.964-0.946c-0.989-0.314-1.977-0.628-2.964-0.944
	c-0.494-0.158-0.988-0.315-1.481-0.474c-4.931-1.587-9.83-3.23-14.604-5.15c-0.478-0.193-0.954-0.387-1.429-0.585
	c-1.899-0.79-3.776-1.629-5.625-2.528c-2.261-1.1-4.479-2.259-6.662-3.463c-1.457-0.803-2.898-1.625-4.328-2.465
	c-0.714-0.42-1.425-0.844-2.134-1.271c-0.709-0.427-1.415-0.858-2.118-1.292c-2.111-1.301-4.201-2.628-6.278-3.969
	c-1.385-0.894-2.764-1.794-4.139-2.696l-1.032-0.678c-0.687-0.451-1.374-0.902-2.061-1.353c-1.03-0.676-2.059-1.352-3.089-2.025
	c-8.928-5.837-17.902-11.489-27.658-15.836l-1.13-0.496c-1.51-0.653-3.04-1.274-4.592-1.859c-1.163-0.439-2.338-0.858-3.528-1.254
	l-1.175-0.385l-0.436-0.138l-0.737-0.233l-0.54-0.165l-0.658-0.199l-0.535-0.159l-0.64-0.185l-0.582-0.167l-0.636-0.178l-0.543-0.15
	l-0.841-0.224l-0.346-0.093l-1.157-0.297l-0.626-0.155l-0.553-0.136l-0.689-0.164l-0.507-0.12l-0.683-0.156l-0.498-0.112
	l-0.742-0.164l-0.379-0.082l-0.86-0.182l-0.099-0.021c-1.463-0.303-2.933-0.584-4.408-0.844l-0.029-0.005
	c-21.568-3.798-44.369-3.128-67.128-3.091l0.033,0.009c12.032,3.303,24.038,6.693,35.962,10.376
	c70.85,21.883,138.117,53.504,187.509,110.496c26.604,30.698,49.785,63.589,82.415,88.458
	c32.577,24.827,69.675,42.899,103.31,66.171c49.622,34.334,92.643,83.022,117.084,138.336
	c10.726,24.276,17.861,49.604,22.976,75.422c7.031,35.495,10.242,71.912,13.715,107.785c3.976,41.085,18.207,80.325,24.351,121.057
	c2.956,19.592,3.69,39.502,0.533,59.124c-3.541,22.01-10.07,43.859-15.794,65.381c-11.841,44.532-24.96,88.722-36.056,133.452
	c-5.039,20.311-8.667,41.085-15.558,60.887c-5.663,16.272-12.792,31.902-21.804,46.598c-17.252,28.13-39.863,52.171-63.218,75.269
	c-26.223,25.936-52.325,51.686-76.453,79.627c-49.165,56.934-93.724,118.747-155.138,163.501
	c-33.144,24.152-70.314,41.954-109.513,53.895c-36.937,11.253-75.264,16.85-113.582,20.856
	c-38.853,4.063-77.894,6.774-116.455,13.244c-19.387,3.251-38.352,7.454-57.102,13.358c-17.974,5.659-35.827,11.882-54.278,15.854
	c-18.094,3.898-36.765,5.896-55.114,2.519c-16.261-2.992-31.417-11.886-43.509-22.978c-22.228-20.388-34.123-49.266-55.947-69.94
	c-21.096-19.987-52.471-30.362-80.349-36.343c-25.343-5.437-51.331-7.138-76.624-12.793c-24.724-5.53-48.008-15.913-66.47-33.597
	c-11.192-10.721-20.484-23.488-28.107-36.944c-8.84-15.602-14.87-32.551-23.556-48.232c-12.714-22.95-30.97-39.072-50.693-55.885
	c-24.493-20.88-52.108-41.267-65.086-71.728c-9.838-23.091-9.398-48.968-12.984-73.433c-2.298-15.667-5.475-31.865-13.347-45.772
	c-7.302-12.901-17.609-23.303-28.108-33.606c-24.585-24.129-45.477-49.812-47.036-85.841
	c-1.613-37.189,16.654-73.993,10.118-111.047c-5.609-31.803-22.792-61.244-36.054-90.27c-0.698-1.527-1.34-3.068-2.017-4.6
	c0.016-0.894,0.032-1.788,0.045-2.682c0.039-2.556,0.09-5.163,0.162-7.806c0.024-0.881,0.051-1.766,0.08-2.655
	c0.09-2.666,0.203-5.366,0.355-8.084c0.201-3.625,0.466-7.284,0.823-10.945c0.108-1.116,0.226-2.232,0.351-3.347
	c0.115-1.011,0.235-2.021,0.366-3.03c0.129-1.009,0.266-2.017,0.413-3.023c0.146-1.006,0.301-2.01,0.464-3.012
	c0.165-1.001,0.336-2,0.519-2.996c0.092-0.498,0.186-0.995,0.281-1.491c0.462-2.389,0.982-4.756,1.564-7.095
	c0.168-0.668,0.339-1.334,0.516-1.997c1.775-6.632,4.092-13.001,7.128-18.893c0.456-0.883,0.927-1.757,1.415-2.618l0.722-1.245
	c0.27-0.456,0.544-0.906,0.825-1.354l0.699-1.095c0.473-0.726,0.96-1.442,1.459-2.148c1.7-2.401,3.431-4.797,5.162-7.204
	c0.385-0.535,0.77-1.07,1.153-1.606l0.576-0.805c0.576-0.805,1.151-1.611,1.723-2.42c1.3-1.835,2.586-3.681,3.85-5.543
	c1.516-2.236,2.998-4.496,4.424-6.791c4.513-7.266,8.456-14.883,11.134-23.177c0.281-0.873,0.549-1.754,0.802-2.642l0.238-0.855
	c0.195-0.716,0.381-1.438,0.556-2.166c0.192-0.796,0.373-1.598,0.54-2.407c1.371-6.647,1.983-13.321,2.24-19.993l0.045-1.251
	c0.08-2.501,0.116-5.003,0.125-7.501c0.008-1.666,0.003-3.331-0.006-4.994c-0.003-0.831-0.009-1.663-0.016-2.494
	c-0.012-1.661-0.024-3.321-0.033-4.979c-0.003-0.828-0.006-1.656-0.007-2.485c-0.001-1.655,0.006-3.308,0.027-4.958
	c0.011-0.825,0.024-1.649,0.042-2.473c0.215-9.47,1.016-18.833,3.613-28c0.183-0.643,0.37-1.282,0.565-1.919l0.313-0.989
	l0.296-0.929l0.421-1.245l0.21-0.615c0.171-0.487,0.349-0.971,0.526-1.454l0.145-0.4c0.206-0.553,0.42-1.103,0.635-1.651
	l0.061-0.158c6.762-17.108,18.057-31.975,31.6-44.573c11.923-11.091,29.927-18.211,37.516-33.157
	c6.411-12.629,6.622-28.03,7.441-41.842c2.173-36.711,26.814-58.453,58.625-73.864c30.177-14.619,49.661-27.717,65.034-58.449
	c8.993-17.977,16.213-29.415,32.784-43.157c69.672-57.776,158.406-107.619,242.215-141.521
	c20.565-8.319,39.088-20.138,61.316-23.062c21.299-2.802,42.392-3.736,63.795-7.973c20.272-4.013,37.755-16.085,56.621-23.117
	c-19.63-6.175-39.605-10.188-59.744-7.403c-26.172,3.619-47.848,22.527-74.259,27.756c-21.403,4.237-42.496,5.171-63.795,7.973
	c-22.228,2.925-40.75,14.743-61.316,23.062c-83.809,33.901-172.544,83.744-242.215,141.52
	c-16.572,13.742-23.792,25.18-32.784,43.157c-15.373,30.731-34.857,43.829-65.034,58.448
	c-31.813,15.411-56.452,37.153-58.625,73.864c-0.818,13.813-1.029,29.213-7.441,41.842c-7.588,14.945-25.592,22.066-37.516,33.157
	c-15.957,14.843-28.796,32.834-34.772,53.933c-7.225,25.508-0.544,52.54-6.03,79.128c-4.472,21.667-18.063,38.545-30.16,55.616
	c-16.005,22.584-17.725,55.567-18.143,82.834c-0.672,43.922-3.191,88.204-10.391,130.273c-3.846,22.468-1.022,52.314,0.079,75.135
	c1.719,35.621,35.063,59.519,40.595,93.576c7.348,45.234-3.727,85.775,23.866,126.997c13.892,20.756,34.466,36.495,45.622,59.201
	c9.979,20.31,3.891,41.424,11.854,61.775c17.479,44.674,68.973,76.628,107.008,102.546c40.727,27.751,78.898,57.379,112.95,93.116
	c31.995,33.579,66.153,47.629,107.886,67.568c17.231,8.233,30.294,7.827,47.849,13.523c40.801,13.241,74.329,51.894,117.343,65.801
	c36.144,11.685,74.608,12.139,112.537,10.815l-0.594-0.089l0.989,0.147c16.804,2.445,33.893,3.232,51.004,3.222
	c11.3-0.007,22.609-0.361,33.853-0.814c2.186-0.088,4.37-0.18,6.551-0.274c6.543-0.282,13.06-0.581,19.534-0.848
	c14.095-0.581,28.193-1.058,42.29-1.58c6.265-0.232,12.529-0.473,18.792-0.736c1.565-0.066,3.131-0.133,4.697-0.202
	c6.262-0.275,12.522-0.575,18.779-0.913c1.565-0.085,3.129-0.173,4.693-0.262c3.128-0.18,6.256-0.369,9.384-0.571
	c4.689-0.303,9.378-0.634,14.066-0.996c4.687-0.363,9.371-0.758,14.054-1.193c3.123-0.289,6.242-0.596,9.361-0.92
	c1.561-0.163,3.121-0.329,4.68-0.501c3.118-0.344,6.236-0.707,9.352-1.092c3.06-0.378,6.201-0.688,9.409-0.943
	c1.071-0.085,2.148-0.165,3.231-0.238c0.619-0.041,1.241-0.082,1.865-0.12c1.664-0.104,3.344-0.194,5.038-0.274
	c0.753-0.036,1.508-0.069,2.266-0.101c1.515-0.064,3.043-0.12,4.58-0.17c2.303-0.073,4.63-0.134,6.972-0.183
	c2.342-0.049,4.701-0.09,7.074-0.122c12.655-0.178,25.681-0.184,38.474-0.65c2.4-0.086,4.789-0.19,7.168-0.314
	c1.586-0.082,3.166-0.173,4.739-0.275c3.934-0.255,7.827-0.573,11.66-0.974c1.533-0.161,3.057-0.335,4.57-0.524
	c1.514-0.189,3.016-0.392,4.507-0.61c4.471-0.658,8.836-1.457,13.062-2.431c0.704-0.164,1.404-0.33,2.1-0.503
	c1.394-0.344,2.77-0.709,4.129-1.096c2.04-0.58,4.04-1.207,5.999-1.886c2.61-0.906,5.145-1.905,7.594-3.007
	c1.06-0.477,2.112-0.968,3.157-1.472c19.324-9.323,36.017-23.131,53.071-36.349c0.46-0.357,0.922-0.714,1.382-1.071
	c2.109-1.628,4.226-3.245,6.356-4.842c0.546-0.41,1.093-0.818,1.641-1.224c2.185-1.623,4.383-3.221,6.604-4.784
	c1.387-0.977,2.783-1.942,4.189-2.89c0.64-0.432,1.281-0.86,1.924-1.285l0.906-0.595c1.049-0.684,2.102-1.359,3.162-2.022
	c0.676-0.423,1.354-0.842,2.035-1.256c0.695-0.423,1.393-0.841,2.095-1.253c0.732-0.432,1.469-0.858,2.208-1.278l1.333-0.748
	c0.711-0.395,1.425-0.787,2.144-1.171l1.257-0.656c26.603-13.556,67.028-14.104,88.321-36.065
	c3.968-4.092,7.367-8.606,10.451-13.371c1.186-1.833,2.324-3.703,3.432-5.599c0.443-0.759,0.881-1.522,1.315-2.289
	c0.433-0.767,0.862-1.538,1.289-2.312c1.278-2.322,2.527-4.671,3.771-7.032c0.933-1.77,1.864-3.548,2.803-5.324
	c0.469-0.888,0.94-1.776,1.415-2.664c0.711-1.331,1.431-2.659,2.163-3.981l0.735-1.321c0.738-1.319,1.492-2.631,2.265-3.934
	c0.306-0.516,0.613-1.03,0.925-1.543l0.469-0.767c1.139-1.853,2.321-3.682,3.557-5.48c2.32-3.372,4.836-6.631,7.632-9.72
	c0.559-0.619,1.129-1.229,1.713-1.833c0.582-0.604,1.176-1.2,1.783-1.789c0.608-0.589,1.228-1.17,1.861-1.743
	c5.421-4.905,11.591-8.855,18.206-12.252l0.865-0.441c0.578-0.291,1.16-0.578,1.745-0.862c0.585-0.284,1.172-0.564,1.764-0.84
	c1.181-0.552,2.374-1.091,3.576-1.617c1.442-0.631,2.899-1.246,4.368-1.846c0.979-0.401,1.964-0.796,2.952-1.185
	c0.988-0.39,1.982-0.774,2.976-1.155c0.997-0.38,1.995-0.758,2.998-1.131c1.001-0.374,2.006-0.746,3.012-1.116
	c0.503-0.184,1.007-0.369,1.512-0.553c1.007-0.368,2.017-0.735,3.026-1.102c0.505-0.183,1.011-0.366,1.515-0.55
	c1.011-0.367,2.021-0.734,3.03-1.104c13.627-4.985,27.129-10.252,38.483-18.467c2.105-1.523,4.125-2.999,6.066-4.439
	c0.777-0.577,1.541-1.147,2.292-1.713c1.503-1.132,2.957-2.244,4.363-3.343c1.055-0.825,2.084-1.641,3.088-2.453
	c0.669-0.541,1.326-1.08,1.974-1.618c0.646-0.538,1.283-1.074,1.909-1.609c1.564-1.339,3.062-2.673,4.501-4.014
	c0.862-0.805,1.704-1.614,2.524-2.426c0.649-0.644,1.286-1.291,1.91-1.943c0.625-0.652,1.236-1.307,1.836-1.97
	c2.887-3.187,5.501-6.508,7.904-10.108c0.655-0.981,1.295-1.984,1.919-3.01c1.042-1.709,2.044-3.485,3.011-5.338
	c0.388-0.742,0.769-1.496,1.145-2.263l0.56-1.161c0.581-1.221,1.149-2.474,1.707-3.766c0.307-0.711,0.61-1.432,0.911-2.165
	c0.902-2.2,1.776-4.506,2.63-6.931c0.72-2.044,1.509-4.043,2.362-6c1.873-4.307,4.046-8.417,6.437-12.384
	c0.409-0.68,0.824-1.354,1.246-2.025c0.422-0.671,0.85-1.338,1.283-2.001c0.432-0.663,0.871-1.323,1.316-1.979
	c0.445-0.656,0.893-1.309,1.347-1.959l0.683-0.972c0.459-0.647,0.922-1.291,1.388-1.932c0.468-0.641,0.939-1.279,1.414-1.915
	c0.95-1.272,1.915-2.534,2.892-3.789c0.488-0.628,0.98-1.254,1.474-1.877c0.741-0.935,1.487-1.867,2.238-2.797
	c0.499-0.62,1.002-1.238,1.506-1.855c0.756-0.927,1.515-1.85,2.276-2.773c0.508-0.616,1.016-1.231,1.524-1.845
	c1.526-1.844,3.057-3.685,4.581-5.532c0.508-0.615,1.015-1.232,1.52-1.848c2.53-3.085,5.031-6.191,7.452-9.351
	c18.631-24.323,22.593-46.554,29.917-75.678c1.158-4.603,2.535-9.05,4.097-13.365c0.391-1.079,0.793-2.149,1.206-3.212
	c0.413-1.063,0.837-2.118,1.27-3.166c0.585-1.41,1.19-2.806,1.812-4.191l0.535-1.18c11.376-24.844,28.307-45.779,42.795-68.649
	c2.309-3.646,4.469-7.357,6.481-11.133c1.207-2.266,2.361-4.555,3.464-6.868c0.321-0.675,0.638-1.351,0.951-2.03
	c0.781-1.697,1.535-3.406,2.262-5.127c0.363-0.861,0.719-1.725,1.07-2.592c0.348-0.867,0.692-1.737,1.028-2.61
	c1.344-3.493,2.58-7.037,3.709-10.63c0.452-1.437,0.886-2.883,1.305-4.335c0.627-2.18,1.217-4.378,1.769-6.594
	c0.631-2.532,1.213-5.089,1.747-7.669c1.246-6.018,2.23-12.165,2.962-18.439c0.894-7.667,2.323-15.063,4.117-22.269
	c0.786-3.153,1.641-6.27,2.552-9.357c0.26-0.882,0.525-1.761,0.794-2.64l0.407-1.314c1.622-5.197,3.387-10.318,5.228-15.396
	c1.012-2.793,2.046-5.574,3.091-8.347c0.392-1.04,0.786-2.079,1.18-3.117c2.76-7.268,5.566-14.499,8.21-21.795
	c1.192-3.289,2.281-6.658,3.274-10.096c0.33-1.147,0.652-2.301,0.961-3.462c0.413-1.549,0.809-3.111,1.185-4.685
	c0.503-2.099,0.973-4.22,1.414-6.362c0.11-0.535,0.218-1.073,0.324-1.61c0.427-2.152,0.821-4.324,1.189-6.512
	c0.275-1.642,0.534-3.293,0.777-4.954c0.243-1.661,0.472-3.331,0.686-5.01c0.285-2.238,0.545-4.49,0.777-6.756
	c0.117-1.133,0.228-2.269,0.332-3.408c0.052-0.57,0.103-1.139,0.153-1.71c0.147-1.713,0.282-3.432,0.404-5.158
	C1908.018,1104.791,1908.082,1088.81,1907.565,1072.969z"/>
<path style="fill:#AC4F17;" d="M941.341,1870.531c-0.603-0.093-1.207-0.187-1.809-0.284l-0.739-0.12
	c-1.251-0.206-2.5-0.422-3.749-0.647l-0.759-0.139c-2.789-0.513-5.569-1.077-8.339-1.695c-1.109-0.247-2.214-0.504-3.318-0.769
	c-1.105-0.265-2.207-0.539-3.308-0.823c-0.482-0.124-0.963-0.249-1.445-0.378c-3.367-0.892-6.714-1.872-10.044-2.948
	c-43.014-13.907-76.542-52.56-117.343-65.801c-1.559-0.506-3.083-0.964-4.578-1.384l-1.116-0.308
	c-0.739-0.201-1.472-0.393-2.2-0.577c-0.727-0.185-1.448-0.362-2.163-0.533c-0.716-0.171-1.425-0.336-2.13-0.495
	c-1.764-0.4-3.497-0.767-5.215-1.125c-1.267-0.265-2.525-0.523-3.778-0.783c-0.955-0.199-1.907-0.398-2.859-0.603l-0.816-0.177
	c-0.543-0.119-1.086-0.24-1.631-0.363l-0.816-0.188c-1.006-0.233-2.014-0.476-3.024-0.734l-1.014-0.262
	c-0.677-0.178-1.355-0.363-2.037-0.557c-0.607-0.172-1.214-0.35-1.827-0.536c-0.612-0.187-1.225-0.38-1.844-0.581
	c-1.235-0.403-2.484-0.839-3.752-1.315c-0.508-0.19-1.017-0.388-1.531-0.591c-0.513-0.204-1.029-0.415-1.549-0.633
	c-0.519-0.218-1.043-0.443-1.569-0.676c-0.791-0.349-1.59-0.716-2.397-1.102c-5.217-2.493-10.315-4.893-15.306-7.251
	c-1.247-0.589-2.489-1.176-3.722-1.761c-1.235-0.585-2.463-1.168-3.684-1.75c-1.222-0.582-2.436-1.163-3.645-1.744
	c-1.209-0.581-2.412-1.16-3.607-1.741c-28.712-13.938-53.925-28.137-77.922-53.321c-0.845-0.886-1.694-1.767-2.544-2.647
	c-5.911-6.094-11.968-11.976-18.105-17.745l0.285,0.17c-14.2-13.37-29.005-25.902-44.319-37.859
	c-7.2-5.62-14.511-11.114-21.922-16.509c-3.708-2.698-7.439-5.371-11.195-8.023c-5.007-3.536-10.058-7.034-15.15-10.502
	c-1.554-1.059-3.13-2.129-4.726-3.208c-1.063-0.72-2.135-1.443-3.215-2.173c-1.62-1.094-3.257-2.199-4.909-3.314
	c-1.468-0.992-2.945-1.993-4.432-3.002c-0.849-0.578-1.702-1.157-2.557-1.741c-2.052-1.4-4.117-2.818-6.191-4.254
	c-2.073-1.436-4.155-2.891-6.239-4.365c-0.653-0.462-1.307-0.927-1.961-1.393c-1.961-1.399-3.923-2.816-5.881-4.249
	c-1.306-0.957-2.609-1.921-3.907-2.893c-0.651-0.486-1.299-0.974-1.946-1.465c-0.648-0.49-1.294-0.983-1.939-1.477
	c-0.968-0.742-1.934-1.488-2.895-2.24c-0.642-0.5-1.282-1.004-1.92-1.509c-0.957-0.758-1.91-1.521-2.859-2.288
	c-0.634-0.512-1.264-1.027-1.893-1.543c-0.629-0.516-1.255-1.035-1.878-1.556l-0.934-0.783c-0.621-0.523-1.241-1.048-1.858-1.576
	c-0.617-0.528-1.23-1.058-1.842-1.59c-0.611-0.532-1.219-1.067-1.824-1.604c-1.211-1.074-2.41-2.157-3.596-3.25
	c-0.593-0.547-1.184-1.096-1.769-1.647c-0.88-0.827-1.752-1.66-2.614-2.498c-0.575-0.559-1.146-1.12-1.714-1.683
	c-3.972-3.945-7.75-8.013-11.272-12.212c-0.503-0.6-1.001-1.202-1.493-1.807c-7.881-9.683-14.376-20.056-18.745-31.224
	c-2.488-6.36-3.604-12.794-4.267-19.255c-0.067-0.646-0.129-1.292-0.188-1.939c-0.057-0.646-0.112-1.293-0.164-1.94l-0.076-0.97
	c-0.05-0.648-0.096-1.295-0.142-1.942c-0.115-1.618-0.222-3.238-0.334-4.857c-0.045-0.647-0.091-1.295-0.139-1.942
	c-0.073-0.971-0.149-1.942-0.232-2.913c-0.056-0.648-0.116-1.295-0.178-1.942c-0.063-0.647-0.131-1.293-0.203-1.94
	c-0.073-0.646-0.15-1.292-0.234-1.938c-0.274-2.119-0.615-4.236-1.051-6.347l-0.186-0.871c-0.958-4.352-2.349-8.683-4.46-12.979
	c-1.602-3.26-3.397-6.376-5.339-9.384c-2.497-3.867-5.236-7.555-8.117-11.141c-0.487-0.607-0.978-1.211-1.474-1.813
	c-0.495-0.601-0.994-1.2-1.496-1.797c-0.502-0.597-1.006-1.191-1.514-1.784c-0.761-0.889-1.528-1.773-2.298-2.655
	c-0.514-0.587-1.031-1.174-1.547-1.76c-0.776-0.878-1.554-1.754-2.335-2.629c-0.781-0.876-1.562-1.75-2.342-2.624
	c-0.521-0.583-1.043-1.166-1.561-1.75c-1.04-1.167-2.078-2.337-3.108-3.512c-1.032-1.174-2.056-2.354-3.069-3.541
	c-2.03-2.375-4.016-4.781-5.93-7.243c-1.915-2.46-3.756-4.977-5.492-7.571c-1.365-2.038-2.634-4.075-3.816-6.11
	c-0.395-0.679-0.778-1.356-1.154-2.035c-0.9-1.628-1.744-3.255-2.538-4.882c-2.117-4.339-3.87-8.677-5.328-13.019
	c-0.324-0.965-0.634-1.93-0.928-2.896c-0.394-1.287-0.764-2.575-1.109-3.864c-0.433-1.611-0.83-3.223-1.194-4.836
	c-0.146-0.646-0.287-1.291-0.423-1.937c-0.135-0.646-0.267-1.292-0.392-1.938c-0.189-0.97-0.367-1.94-0.535-2.911
	c-0.112-0.647-0.22-1.295-0.323-1.943c-0.104-0.648-0.204-1.296-0.298-1.945c-0.143-0.972-0.276-1.947-0.402-2.922
	c-0.125-0.974-0.243-1.949-0.353-2.926c-0.11-0.976-0.212-1.954-0.307-2.932c-0.063-0.652-0.124-1.305-0.183-1.958
	c-0.116-1.306-0.221-2.614-0.316-3.924c-0.047-0.655-0.092-1.31-0.135-1.966c-0.064-0.984-0.124-1.97-0.18-2.955
	c-0.036-0.658-0.072-1.316-0.106-1.975c-0.269-5.27-0.436-10.576-0.613-15.929c-0.022-0.669-0.044-1.339-0.066-2.01
	c-0.079-2.347-0.163-4.704-0.259-7.071c-0.028-0.676-0.057-1.354-0.087-2.031c-0.437-9.829-1.156-19.836-2.821-30.085
	c-0.951-5.854-2.724-11.407-5.016-16.771c-0.312-0.732-0.635-1.46-0.966-2.185l-0.334-0.724c-1.011-2.168-2.1-4.307-3.246-6.426
	c-0.381-0.706-0.77-1.411-1.165-2.112c-0.525-0.937-1.06-1.868-1.603-2.798c-0.271-0.464-0.546-0.929-0.821-1.392
	c-0.413-0.695-0.831-1.389-1.251-2.081l-0.421-0.693c-2.678-4.381-5.475-8.719-8.201-13.086l-0.43-0.69
	c-1.288-2.07-2.555-4.147-3.786-6.239l-0.408-0.698c-5.152-8.847-9.564-17.973-11.681-27.953c-0.166-0.787-0.319-1.581-0.457-2.379
	c-0.184-1.065-0.34-2.14-0.469-3.226l-0.09-0.816c-0.056-0.546-0.107-1.094-0.149-1.645c-0.041-0.551-0.077-1.104-0.104-1.661
	c-0.051-1.07-0.107-2.155-0.166-3.254c-1.146-21.616-3.423-48.629-0.254-69.754c0.107-0.716,0.22-1.425,0.341-2.128
	c0.223-1.301,0.441-2.603,0.654-3.907l0.197-1.233c0.106-0.659,0.212-1.318,0.318-1.978l0.109-0.689l0.007-0.044
	c0.085-0.551,0.168-1.104,0.253-1.655l0.175-1.148l0.159-1.033l0.007-0.047c0.11-0.738,0.217-1.478,0.325-2.219l0.093-0.636
	l0.011-0.079l0.147-1.006c0.129-0.905,0.254-1.812,0.38-2.718l0.133-0.955l0.022-0.157l0.008-0.051
	c0.161-1.179,0.318-2.359,0.472-3.541l0.044-0.328c0.158-1.224,0.314-2.448,0.466-3.674l0.033-0.264
	c4.069-32.828,5.749-66.628,6.322-100.25l0.01,0.024c0.016-0.894,0.032-1.788,0.045-2.682c0.039-2.556,0.09-5.163,0.162-7.806
	c0.024-0.881,0.051-1.766,0.08-2.655c0.09-2.666,0.203-5.366,0.355-8.084c0.201-3.625,0.466-7.284,0.823-10.945
	c0.108-1.116,0.226-2.232,0.351-3.347c0.115-1.011,0.235-2.021,0.366-3.03c0.129-1.009,0.266-2.017,0.413-3.023
	c0.146-1.006,0.301-2.01,0.464-3.012c0.165-1.001,0.336-2,0.519-2.996c0.092-0.498,0.186-0.995,0.281-1.491
	c0.462-2.389,0.982-4.756,1.564-7.095c0.168-0.668,0.339-1.334,0.516-1.997c1.775-6.632,4.092-13.001,7.128-18.893
	c0.456-0.883,0.927-1.757,1.415-2.618l0.722-1.245c0.27-0.456,0.544-0.906,0.825-1.354l0.699-1.095
	c0.473-0.726,0.96-1.442,1.459-2.148c1.7-2.401,3.431-4.797,5.162-7.204c0.385-0.535,0.77-1.07,1.153-1.606l0.576-0.805
	c0.576-0.805,1.151-1.611,1.723-2.42c1.3-1.835,2.586-3.681,3.85-5.543c1.516-2.236,2.998-4.496,4.424-6.791
	c4.513-7.266,8.456-14.883,11.134-23.177c0.281-0.873,0.549-1.754,0.802-2.642l0.238-0.855c0.195-0.716,0.381-1.438,0.556-2.166
	c0.192-0.796,0.373-1.598,0.54-2.407c1.371-6.647,1.983-13.321,2.24-19.993l0.045-1.251c0.08-2.501,0.116-5.003,0.125-7.501
	c0.008-1.666,0.003-3.331-0.006-4.994c-0.003-0.831-0.009-1.663-0.016-2.494c-0.012-1.661-0.024-3.321-0.033-4.979
	c-0.003-0.828-0.006-1.656-0.007-2.485c-0.001-1.655,0.006-3.308,0.027-4.958c0.011-0.825,0.024-1.649,0.042-2.473
	c0.215-9.47,1.016-18.833,3.613-28c0.183-0.643,0.37-1.282,0.565-1.919l0.313-0.989l0.296-0.929l0.421-1.245l0.21-0.615
	c0.171-0.487,0.349-0.971,0.526-1.454l0.145-0.4c0.206-0.553,0.42-1.103,0.635-1.651l0.061-0.158
	c6.762-17.108,18.057-31.975,31.6-44.573c11.923-11.091,29.927-18.211,37.516-33.157c6.411-12.629,6.622-28.03,7.441-41.842
	c2.173-36.711,26.814-58.453,58.625-73.864c30.177-14.619,49.661-27.717,65.034-58.449c8.993-17.977,16.213-29.415,32.784-43.157
	c69.672-57.776,158.406-107.619,242.215-141.521c20.565-8.319,39.088-20.138,61.316-23.062c21.299-2.802,42.392-3.736,63.795-7.973
	c20.272-4.013,37.755-16.085,56.621-23.117c-19.63-6.175-39.605-10.188-59.744-7.403c-26.172,3.619-47.848,22.527-74.259,27.756
	c-21.403,4.237-42.496,5.171-63.795,7.973c-22.228,2.925-40.75,14.743-61.316,23.062c-83.809,33.901-172.544,83.744-242.215,141.52
	c-16.572,13.742-23.792,25.18-32.784,43.157c-15.373,30.731-34.857,43.829-65.034,58.448
	c-31.813,15.411-56.452,37.153-58.625,73.864c-0.818,13.813-1.029,29.213-7.441,41.842c-7.588,14.945-25.592,22.066-37.516,33.157
	c-15.957,14.843-28.796,32.834-34.772,53.933c-7.225,25.508-0.544,52.54-6.03,79.128c-4.472,21.667-18.063,38.545-30.16,55.616
	c-16.005,22.584-17.725,55.567-18.143,82.834c-0.672,43.922-3.191,88.204-10.391,130.273c-3.846,22.468-1.022,52.314,0.079,75.135
	c1.719,35.621,35.063,59.519,40.595,93.576c7.348,45.234-3.727,85.775,23.866,126.997c13.892,20.756,34.466,36.495,45.622,59.201
	c9.979,20.31,3.891,41.424,11.854,61.775c17.479,44.674,68.973,76.628,107.008,102.546c40.727,27.751,78.898,57.379,112.95,93.116
	c31.995,33.579,66.153,47.629,107.886,67.568c17.231,8.233,30.294,7.827,47.849,13.523c40.801,13.241,74.329,51.894,117.343,65.801
	c36.144,11.685,74.608,12.139,112.537,10.815l-0.594-0.089L941.341,1870.531z"/>
<path style="fill:#C45D17;" d="M1907.565,1072.969c-0.344-10.496-0.942-20.93-1.665-31.131c-0.167-2.353-0.341-4.695-0.52-7.021
	c-0.119-1.551-0.24-3.095-0.363-4.633c-0.37-4.612-0.755-9.161-1.145-13.628c-0.129-1.489-0.259-2.969-0.388-4.44
	c-0.098-1.102-0.195-2.2-0.292-3.291c-0.291-3.275-0.58-6.498-0.86-9.663c-1.051-11.857-3.068-23.454-5.759-34.868
	c-0.352-1.489-0.714-2.974-1.088-4.457c-0.747-2.966-1.537-5.919-2.365-8.862c-0.602-2.14-1.225-4.275-1.866-6.405
	c-0.641-2.13-1.301-4.255-1.977-6.375c-0.901-2.827-1.831-5.647-2.786-8.46c-0.881-2.596-1.782-5.187-2.7-7.772
	c-0.919-2.587-1.855-5.168-2.804-7.746c-0.178-0.482-0.356-0.965-0.535-1.446c-0.714-1.929-1.435-3.854-2.162-5.78
	c-0.363-0.962-0.727-1.924-1.094-2.886c-0.586-1.539-1.175-3.077-1.765-4.614c-0.592-1.537-1.185-3.074-1.78-4.609
	c-0.297-0.768-0.596-1.536-0.893-2.304c-0.894-2.303-1.791-4.605-2.687-6.908c-1.196-3.07-2.39-6.14-3.579-9.211
	c-0.89-2.303-1.778-4.607-2.659-6.913c-0.587-1.537-1.172-3.075-1.753-4.614c-2.033-5.386-4.021-10.783-5.931-16.2
	c-1.105-3.137-2.106-6.345-3.036-9.6c-0.413-1.446-0.812-2.903-1.202-4.365l-0.29-1.099c-0.384-1.467-0.759-2.939-1.127-4.416
	l-0.275-1.108c-0.548-2.219-1.082-4.446-1.615-6.674l-0.265-1.114c-0.267-1.114-0.534-2.227-0.8-3.341
	c-0.179-0.742-0.357-1.483-0.537-2.224c-0.361-1.481-0.723-2.959-1.095-4.432l-0.279-1.104c-1.967-7.72-4.153-15.281-7.022-22.364
	c-0.956-2.361-1.988-4.669-3.113-6.911c-1-1.994-2.045-4.008-3.128-6.037c-1.807-3.383-3.719-6.809-5.708-10.256
	c-0.796-1.379-1.605-2.76-2.425-4.144c-0.818-1.384-1.649-2.77-2.487-4.156c-1.677-2.773-3.39-5.547-5.123-8.312
	c-0.868-1.382-1.74-2.764-2.614-4.14c-2.187-3.441-4.397-6.858-6.596-10.229c-0.881-1.348-1.76-2.69-2.636-4.022
	c-0.877-1.333-1.749-2.656-2.616-3.97c-0.868-1.313-1.732-2.616-2.587-3.908c-1.285-1.937-2.554-3.849-3.802-5.729
	c-0.519-0.783-1.038-1.573-1.557-2.363l-0.48-0.729c-3.416-5.223-6.805-10.602-10.128-16.07c-4.594-7.561-9.06-15.293-13.281-23.025
	c-1.82-3.331-3.593-6.662-5.313-9.979c-1.83-3.53-3.604-7.108-5.337-10.722c-1.039-2.168-2.063-4.348-3.077-6.539
	c-0.339-0.73-0.675-1.461-1.01-2.194c-0.671-1.465-1.336-2.932-1.999-4.404c-2.649-5.885-5.237-11.82-7.827-17.746
	c-1.941-4.446-3.884-8.888-5.853-13.303c-1.312-2.944-2.634-5.875-3.978-8.788c-0.671-1.457-1.347-2.909-2.029-4.354
	c-0.341-0.723-0.683-1.444-1.027-2.165c-0.271-0.57-0.547-1.136-0.825-1.699c-1.112-2.252-2.272-4.454-3.477-6.617
	c-3.915-7.029-8.293-13.646-12.988-20.229c-0.722-1.012-1.452-2.024-2.189-3.037c-0.737-1.013-1.48-2.026-2.23-3.041
	c-1.124-1.523-2.263-3.051-3.414-4.587c-2.687-3.586-5.442-7.221-8.241-10.964c-12.896-17.25-29.594-28.911-46.831-40.203
	c-2.153-1.412-4.317-2.818-6.482-4.228c-0.541-0.353-1.082-0.706-1.624-1.059c-14.617-9.539-29.256-19.398-41.953-32.715
	l-0.839-0.891l-0.159-0.169l-0.793-0.865l-0.193-0.212l-0.744-0.828l-0.285-0.324l-0.498-0.567l-0.411-0.472l-0.493-0.574
	c-18.106-21.172-33.339-51.531-56.827-67.475c11.339,21.835,21.451,44.454,37.247,63.455c8.978,10.801,20.301,19.888,30.775,29.185
	c11.029,9.788,22.202,19.411,33.311,29.107c20.704,18.076,41.218,36.475,59.615,56.939c43.552,48.444,69.289,108.284,94.979,167.44
	c28.225,64.989,52.262,132.193,66.428,201.738c13.771,67.592,18.03,136.982,8.028,205.411
	c-9.112,62.34-30.555,123.411-55.639,181.016c-45.805,105.194-111.864,201.242-192.086,283.149
	c-39.779,40.613-83.047,77.833-128.835,111.511c-23.072,16.97-46.813,33.025-71.133,48.152
	c-25.346,15.765-51.224,31.417-78.447,43.739c-60.788,27.513-127.325,37.063-193.448,40.649c-33.768,1.832-67.593,2.222-101.4,2.848
	c-30.106,0.558-60.339,2.864-90.446,2.217c-18.722-0.403-37.087-2.802-54.205-10.771c-19.213-8.944-35.942-23.23-52.304-36.445
	c-11.877-9.592-23.417-19.181-36.907-26.481c-13.601-7.359-28.06-12.72-42.787-17.328c-29.438-9.211-59.982-16.36-87.29-31.131
	c-24.24-13.111-48.608-26.486-72.447-40.724l-0.285-0.17c6.136,5.77,12.194,11.652,18.105,17.745c0.85,0.88,1.699,1.76,2.544,2.647
	c23.997,25.184,49.21,39.383,77.922,53.321c1.196,0.581,2.398,1.16,3.607,1.741c1.208,0.581,2.423,1.162,3.645,1.744
	c1.222,0.582,2.45,1.165,3.684,1.75c1.234,0.585,2.475,1.172,3.722,1.761c4.991,2.358,10.089,4.758,15.306,7.251
	c0.808,0.386,1.606,0.753,2.397,1.102c0.526,0.233,1.05,0.458,1.569,0.676c0.52,0.218,1.037,0.429,1.549,0.633
	c0.514,0.203,1.023,0.401,1.531,0.591c1.268,0.476,2.517,0.912,3.752,1.315c0.619,0.202,1.233,0.395,1.844,0.581
	c0.613,0.186,1.22,0.364,1.827,0.536c0.682,0.194,1.36,0.379,2.037,0.557l1.014,0.262c1.011,0.257,2.018,0.501,3.024,0.734
	l0.816,0.188c0.545,0.123,1.088,0.244,1.631,0.363l0.816,0.177c0.951,0.205,1.904,0.405,2.859,0.603
	c1.253,0.26,2.511,0.519,3.778,0.783c1.718,0.358,3.451,0.726,5.215,1.125c0.705,0.159,1.414,0.324,2.13,0.495
	c0.715,0.171,1.436,0.348,2.163,0.533c0.727,0.184,1.46,0.377,2.2,0.577l1.116,0.308c1.496,0.42,3.019,0.877,4.578,1.384
	c40.801,13.241,74.329,51.894,117.343,65.8c3.33,1.076,6.677,2.057,10.044,2.949c0.481,0.128,0.962,0.253,1.445,0.378
	c1.101,0.284,2.203,0.558,3.308,0.823c1.104,0.265,2.209,0.521,3.318,0.769c2.77,0.618,5.549,1.182,8.339,1.695l0.759,0.139
	c1.248,0.225,2.498,0.442,3.749,0.647l0.739,0.12c0.602,0.097,1.206,0.192,1.809,0.284l1.051,0.158l0.989,0.147
	c16.804,2.445,33.893,3.232,51.004,3.222c11.3-0.007,22.609-0.361,33.853-0.814c2.186-0.088,4.37-0.18,6.551-0.274
	c6.543-0.282,13.06-0.581,19.534-0.848c14.095-0.581,28.193-1.058,42.29-1.58c6.265-0.232,12.529-0.473,18.792-0.736
	c1.565-0.066,3.131-0.133,4.697-0.202c6.262-0.275,12.522-0.575,18.779-0.913c1.565-0.085,3.129-0.173,4.693-0.262
	c3.128-0.18,6.256-0.369,9.384-0.571c4.689-0.303,9.378-0.634,14.066-0.996c4.687-0.363,9.371-0.758,14.054-1.193
	c3.123-0.289,6.242-0.596,9.361-0.92c1.561-0.163,3.121-0.329,4.68-0.501c3.118-0.344,6.236-0.707,9.352-1.092
	c3.06-0.378,6.201-0.688,9.409-0.943c1.071-0.085,2.148-0.165,3.231-0.238c0.619-0.041,1.241-0.082,1.865-0.12
	c1.664-0.104,3.344-0.194,5.038-0.274c0.753-0.036,1.508-0.069,2.266-0.101c1.515-0.064,3.043-0.12,4.58-0.17
	c2.303-0.073,4.63-0.134,6.972-0.183c2.342-0.049,4.701-0.09,7.074-0.122c12.655-0.178,25.681-0.184,38.474-0.65
	c2.4-0.086,4.789-0.19,7.168-0.314c1.586-0.082,3.166-0.173,4.739-0.275c3.934-0.255,7.827-0.573,11.66-0.974
	c1.533-0.161,3.057-0.335,4.57-0.524c1.514-0.189,3.016-0.392,4.507-0.61c4.471-0.658,8.836-1.457,13.062-2.431
	c0.704-0.164,1.404-0.33,2.1-0.503c1.394-0.344,2.77-0.709,4.129-1.096c2.04-0.58,4.04-1.207,5.999-1.886
	c2.61-0.906,5.145-1.905,7.594-3.007c1.06-0.477,2.112-0.968,3.157-1.472c19.324-9.323,36.017-23.131,53.071-36.349
	c0.46-0.357,0.922-0.714,1.382-1.071c2.109-1.628,4.226-3.245,6.356-4.842c0.546-0.41,1.093-0.818,1.641-1.224
	c2.185-1.623,4.383-3.221,6.604-4.784c1.387-0.977,2.783-1.942,4.189-2.89c0.64-0.432,1.281-0.86,1.924-1.285l0.906-0.595
	c1.049-0.684,2.102-1.359,3.162-2.022c0.676-0.423,1.354-0.842,2.035-1.256c0.695-0.423,1.393-0.841,2.095-1.253
	c0.732-0.432,1.469-0.858,2.208-1.278l1.333-0.748c0.711-0.395,1.425-0.787,2.144-1.171l1.257-0.656
	c26.603-13.556,67.028-14.104,88.321-36.065c3.968-4.092,7.367-8.606,10.451-13.371c1.186-1.833,2.324-3.703,3.432-5.599
	c0.443-0.759,0.881-1.522,1.315-2.289c0.433-0.767,0.862-1.538,1.289-2.312c1.278-2.322,2.527-4.671,3.771-7.032
	c0.933-1.77,1.864-3.548,2.803-5.324c0.469-0.888,0.94-1.776,1.415-2.664c0.711-1.331,1.431-2.659,2.163-3.981l0.735-1.321
	c0.738-1.319,1.492-2.631,2.265-3.934c0.306-0.516,0.613-1.03,0.925-1.543l0.469-0.767c1.139-1.853,2.321-3.682,3.557-5.48
	c2.32-3.372,4.836-6.631,7.632-9.72c0.559-0.619,1.129-1.229,1.713-1.833c0.582-0.604,1.176-1.2,1.783-1.789
	c0.608-0.589,1.228-1.17,1.861-1.743c5.421-4.905,11.591-8.855,18.206-12.252l0.865-0.441c0.578-0.291,1.16-0.578,1.745-0.862
	c0.585-0.284,1.172-0.564,1.764-0.84c1.181-0.552,2.374-1.091,3.576-1.617c1.442-0.631,2.899-1.246,4.368-1.846
	c0.979-0.401,1.964-0.796,2.952-1.185c0.988-0.39,1.982-0.774,2.976-1.155c0.997-0.38,1.995-0.758,2.998-1.131
	c1.001-0.374,2.006-0.746,3.012-1.116c0.503-0.184,1.007-0.369,1.512-0.553c1.007-0.368,2.017-0.735,3.026-1.102
	c0.505-0.183,1.011-0.366,1.515-0.55c1.011-0.367,2.021-0.734,3.03-1.104c13.627-4.985,27.129-10.252,38.483-18.467
	c2.105-1.523,4.125-2.999,6.066-4.439c0.777-0.577,1.541-1.147,2.292-1.713c1.503-1.132,2.957-2.244,4.363-3.343
	c1.055-0.825,2.084-1.641,3.088-2.453c0.669-0.541,1.326-1.08,1.974-1.618c0.646-0.538,1.283-1.074,1.909-1.609
	c1.564-1.339,3.062-2.673,4.501-4.014c0.862-0.805,1.704-1.614,2.524-2.426c0.649-0.644,1.286-1.291,1.91-1.943
	c0.625-0.652,1.236-1.307,1.836-1.97c2.887-3.187,5.501-6.508,7.904-10.108c0.655-0.981,1.295-1.984,1.919-3.01
	c1.042-1.709,2.044-3.485,3.011-5.338c0.388-0.742,0.769-1.496,1.145-2.263l0.56-1.161c0.581-1.221,1.149-2.474,1.707-3.766
	c0.307-0.711,0.61-1.432,0.911-2.165c0.902-2.2,1.776-4.506,2.63-6.931c0.72-2.044,1.509-4.043,2.362-6
	c1.873-4.307,4.046-8.417,6.437-12.384c0.409-0.68,0.824-1.354,1.246-2.025c0.422-0.671,0.85-1.338,1.283-2.001
	c0.432-0.663,0.871-1.323,1.316-1.979c0.445-0.656,0.893-1.309,1.347-1.959l0.683-0.972c0.459-0.647,0.922-1.291,1.388-1.932
	c0.468-0.641,0.939-1.279,1.414-1.915c0.95-1.272,1.915-2.534,2.892-3.789c0.488-0.628,0.98-1.254,1.474-1.877
	c0.741-0.935,1.487-1.867,2.238-2.797c0.499-0.62,1.002-1.238,1.506-1.855c0.756-0.927,1.515-1.85,2.276-2.773
	c0.508-0.616,1.016-1.231,1.524-1.845c1.526-1.844,3.057-3.685,4.581-5.532c0.508-0.615,1.015-1.232,1.52-1.848
	c2.53-3.085,5.031-6.191,7.452-9.351c18.631-24.323,22.593-46.554,29.917-75.678c1.158-4.603,2.535-9.05,4.097-13.365
	c0.391-1.079,0.793-2.149,1.206-3.212c0.413-1.063,0.837-2.118,1.27-3.166c0.585-1.41,1.19-2.806,1.812-4.191l0.535-1.18
	c11.376-24.844,28.307-45.779,42.795-68.649c2.309-3.646,4.469-7.357,6.481-11.133c1.207-2.266,2.361-4.555,3.464-6.868
	c0.321-0.675,0.638-1.351,0.951-2.03c0.781-1.697,1.535-3.406,2.262-5.127c0.363-0.861,0.719-1.725,1.07-2.592
	c0.348-0.867,0.692-1.737,1.028-2.61c1.344-3.493,2.58-7.037,3.709-10.63c0.452-1.437,0.886-2.883,1.305-4.335
	c0.627-2.18,1.217-4.378,1.769-6.594c0.631-2.532,1.213-5.089,1.747-7.669c1.246-6.018,2.23-12.165,2.962-18.439
	c0.894-7.667,2.323-15.063,4.117-22.269c0.786-3.153,1.641-6.27,2.552-9.357c0.26-0.882,0.525-1.761,0.794-2.64l0.407-1.314
	c1.622-5.197,3.387-10.318,5.228-15.396c1.012-2.793,2.046-5.574,3.091-8.347c0.392-1.04,0.786-2.079,1.18-3.117
	c2.76-7.268,5.566-14.499,8.21-21.795c1.192-3.289,2.281-6.658,3.274-10.096c0.33-1.147,0.652-2.301,0.961-3.462
	c0.413-1.549,0.809-3.111,1.185-4.685c0.503-2.099,0.973-4.22,1.414-6.362c0.11-0.535,0.218-1.073,0.324-1.61
	c0.427-2.152,0.821-4.324,1.189-6.512c0.275-1.642,0.534-3.293,0.777-4.954c0.243-1.661,0.472-3.331,0.686-5.01
	c0.285-2.238,0.545-4.49,0.777-6.756c0.117-1.133,0.228-2.269,0.332-3.408c0.052-0.57,0.103-1.139,0.153-1.71
	c0.147-1.713,0.282-3.432,0.404-5.158C1908.018,1104.791,1908.082,1088.81,1907.565,1072.969z"/>
<path style="fill:#FAC079;" d="M1444.523,1021.992c-8.864,3.77-17.33,9.135-24.179,15.944c0.4-13.72-1.168-27.468-4.957-40.76
	c-8.159-28.62-24.666-56.498-20.569-85.975c4.448-31.992,31.488-55.101,54.112-78.152c22.625-23.051,43.603-55.431,32.361-85.71
	c-19.792-53.313-182.303-61.412-120.839-137.136c16.754-20.631,42.6-34.4,52.911-58.894c18.624-44.244-23.059-89.067-60.502-119.107
	c-50.285-40.343-109.217-83.127-172.797-72.461c-18.229,3.058-35.691,10.506-54.141,11.609
	c-30.483,1.821-58.972-13.698-88.74-20.634c-0.602-0.14-1.205-0.277-1.808-0.41c-53.407-11.78-112.601,8.285-147.835,50.112
	c-17.932,21.286-31.105,48.495-56.097,60.742c-2.795,1.37-5.646,2.507-8.542,3.444c-5.521-5.463-12.93-7.22-22.649-3.085
	c-4.768,2.027-9.481,4.271-14.101,6.723c-13.182-0.697-26.601-2.69-39.641-3.651c-80.411-5.926-126.724,71.591-157.301,134.805
	c-1.918-0.499-4.15-0.297-6.733,0.802c-8.971,3.816-17.539,9.264-24.431,16.191c-3.948,3.969-15.624,17.586-10.917,24.083
	c1.145,1.58,4.817,2.738,6.557,3.888c3.697,2.443,7.623,3.763,11.702,5.112c-21.31,44.841-42.62,89.681-63.929,134.522
	c-21.593,45.438-42.749,101.093-15.257,143.224c12.251,18.772,32.296,30.995,46.695,48.174
	c63.601,75.875-4.526,210.067,62.809,282.648c32.912,35.477,86.491,41.314,134.87,40.113c48.379-1.201,99.151-6.719,143.124,13.486
	c24.279,11.156,45.402,29.802,71.486,35.588c49.252,10.925,95.406-27.016,127.558-65.893c32.151-38.877,63.55-84.37,112.289-97.395
	c37.882-10.124,78.316,2.035,117.169-3.255c57.384-7.812,101.661-57.642,114.452-113.95c4.623,2.804,9.587,4.034,14.745,5.872
	c8.354,2.977,21.016,7.286,26.667-2.437c2.613-4.496,4.335-18.088,3.051-29.856
	C1459.76,1027.896,1455.057,1017.51,1444.523,1021.992z"/>
<path style="fill:#FDD5A3;" d="M1304.492,697.164c-13.632-36.718-125.557-42.295-83.225-94.449
	c11.538-14.208,29.339-23.692,36.441-40.562c12.827-30.472-15.881-61.343-41.669-82.032
	c-34.633-27.785-75.222-57.252-119.011-49.906c-12.554,2.106-24.581,7.237-37.287,7.996c-20.995,1.254-40.616-9.434-61.12-14.211
	l-1.245-0.282c-36.782-8.113-77.552,5.706-101.818,34.514c-12.35,14.66-21.423,33.4-38.636,41.834
	c-6.519,3.194-13.471,4.557-20.636,4.933c-0.112-1.38-0.24-2.751-0.389-4.112c-1.661-15.223-5.662-29.024-12.997-36.282
	c-5.521-5.463-12.93-7.22-22.649-3.085c-4.768,2.027-9.481,4.271-14.101,6.723c-14.059,7.461-27.245,16.861-38.387,28.062
	c-7.361,7.399-27.22,30.401-25.742,45.478c-14.097,17.82-25.086,39.047-34.053,57.914c-19.439,40.904-38.878,81.81-58.318,122.714
	c-14.872,31.294-29.442,69.626-10.506,98.642c8.436,12.929,22.242,21.347,32.159,33.179c41.488,49.496,1.591,135.024,36.664,186.4
	c13.15-3.33,31.047-5.526,47.51-4.921c27.006,0.994,50.148,9.527,42.115,32.954c-0.909,2.65-1.882,5.289-2.917,7.911
	c4.291,0.082,8.561,0.055,12.774-0.049c33.319-0.828,68.287-4.627,98.574,9.288c16.721,7.683,31.269,20.526,49.234,24.51
	c33.922,7.524,65.71-18.607,87.852-45.382c22.144-26.776,43.77-58.108,77.337-67.079c24.915-6.659,51.435,0.677,77.076-1.821
	c5.398-2.974,10.937-5.66,16.549-8.048c5.806-2.47,10.788-2.837,15.036-1.568c39.458-21.265,62.621-72.897,49.991-117.194
	c-5.62-19.712-16.989-38.912-14.166-59.213c3.063-22.034,21.686-37.95,37.268-53.826
	C1297.786,740.32,1312.234,718.019,1304.492,697.164z"/>
<path style="fill:#772118;" d="M1059.434,478.541c4.882,3.226,10.161,4.494,15.665,6.455c8.355,2.977,21.016,7.285,26.668-2.438
	c2.612-4.496,4.334-18.088,3.051-29.855c-1.355-12.418-6.057-22.805-16.592-18.324c-8.971,3.816-17.539,9.264-24.431,16.191
	c-3.948,3.969-15.624,17.585-10.917,24.083C1054.022,476.233,1057.695,477.391,1059.434,478.541z"/>
<path style="fill:#772118;" d="M802.437,817.147c-7.911-3.365-11.442,4.435-12.459,13.76c-0.963,8.837,0.329,19.044,2.291,22.42
	c4.245,7.302,13.752,4.067,20.025,1.831c4.134-1.473,8.099-2.425,11.764-4.847c1.307-0.864,4.065-1.733,4.925-2.92
	c3.535-4.88-5.234-15.104-8.198-18.085C815.609,824.104,809.174,820.013,802.437,817.147z"/>
<path style="fill:#772118;" d="M1203.222,1416.367c-1.458,1.781-4.954,4.202-5.644,6.243c-2.839,8.391,13.923,18.934,19.385,21.83
	c9.531,5.053,20.348,7.998,31.057,9.09c12.533,1.279,14.128-11.128,11.532-24.618l-0.024-0.129
	c-2.492-12.829-8.75-26.601-12.975-30.489c-9.137-8.406-21.082,0.275-28.919,6.145c-2.754,2.063-5.505,3.896-8.094,5.917
	C1207.274,1412.124,1205.132,1414.035,1203.222,1416.367z"/>
<path style="fill:#772118;" d="M1643.949,1228.874c9.531,5.053,20.348,7.998,31.056,9.089c12.575,1.283,14.139-11.207,11.509-24.747
	c-2.492-12.829-8.75-26.6-12.975-30.488c-9.138-8.407-21.082,0.275-28.921,6.144c-5.162,3.867-10.317,6.93-14.409,11.928
	c-1.459,1.781-4.954,4.202-5.644,6.243C1621.723,1215.435,1638.487,1225.979,1643.949,1228.874z"/>
<path style="fill:#772118;" d="M558.402,1207.602c-9.139-8.406-21.083,0.275-28.921,6.145c-5.163,3.867-10.317,6.93-14.41,11.927
	c-1.458,1.781-4.953,4.202-5.645,6.243c-2.839,8.391,13.925,18.935,19.386,21.83c9.53,5.053,20.347,7.997,31.056,9.09
	c12.575,1.283,14.139-11.207,11.509-24.747C568.885,1225.261,562.626,1211.489,558.402,1207.602z"/>
<path style="fill:#772118;" d="M1270.64,624.125c-1.459,1.782-4.954,4.203-5.644,6.244c-2.841,8.391,13.923,18.934,19.385,21.83
	c9.53,5.052,20.347,7.997,31.056,9.09c12.575,1.283,14.139-11.207,11.509-24.747c-2.492-12.829-8.751-26.601-12.976-30.488
	c-9.138-8.407-21.083,0.275-28.921,6.145C1279.886,616.065,1274.732,619.127,1270.64,624.125z"/>
<path style="fill:#772118;" d="M596.017,648.377c2.613-4.496,4.335-18.088,3.051-29.855c-1.022-9.373-3.952-17.588-9.859-19.126
	c-1.918-0.499-4.15-0.297-6.733,0.802c-8.971,3.816-17.539,9.264-24.431,16.191c-3.948,3.969-15.624,17.586-10.917,24.083
	c1.145,1.58,4.817,2.738,6.557,3.888c3.697,2.443,7.623,3.763,11.702,5.112c1.306,0.432,2.628,0.867,3.963,1.343
	C577.704,653.792,590.365,658.101,596.017,648.377z"/>
<path style="fill:#772118;" d="M1503.92,658.633c4.88,3.226,10.161,4.494,15.663,6.455c8.356,2.977,21.016,7.286,26.667-2.437
	c2.613-4.497,4.335-18.088,3.051-29.856c-1.354-12.418-6.056-22.804-16.591-18.323c-8.972,3.816-17.541,9.264-24.431,16.19
	c-3.949,3.969-15.625,17.585-10.918,24.083C1498.507,656.325,1502.18,657.483,1503.92,658.633z"/>
<path style="fill:#772118;" d="M437.17,943.227c-8.972,3.816-17.541,9.264-24.431,16.191c-3.949,3.969-15.625,17.586-10.918,24.083
	c1.145,1.581,4.819,2.738,6.558,3.888c4.881,3.226,10.161,4.494,15.664,6.455c8.356,2.977,21.016,7.286,26.668-2.437
	c2.612-4.496,4.335-18.088,3.051-29.855C452.406,949.132,447.705,938.746,437.17,943.227z"/>
<path style="fill:#772118;" d="M1409.175,1062.265c1.145,1.581,4.817,2.738,6.557,3.888l0.919,0.583
	c4.623,2.804,9.587,4.034,14.745,5.872c8.354,2.977,21.016,7.286,26.667-2.437c2.613-4.496,4.335-18.088,3.051-29.856
	c-1.354-12.418-6.057-22.804-16.592-18.323c-8.864,3.77-17.33,9.135-24.179,15.944l-0.252,0.246
	C1416.144,1042.151,1404.468,1055.767,1409.175,1062.265z"/>
<path style="fill:#772118;" d="M1063.365,1721.14c4.881,3.226,10.161,4.494,15.665,6.455c8.354,2.977,21.016,7.285,26.666-2.438
	c2.614-4.496,4.334-18.088,3.052-29.856c-1.356-12.418-6.057-22.804-16.592-18.323c-8.972,3.816-17.541,9.264-24.431,16.191
	c-3.949,3.969-15.624,17.585-10.917,24.083C1057.953,1718.833,1061.626,1719.991,1063.365,1721.14z"/>
<path style="fill:#772118;" d="M722.022,541.783c0.226,2.299,0.946,4.415,2.285,6.263c2.459,3.395,10.351,5.883,14.087,8.353
	c10.487,6.931,21.831,9.655,33.654,13.868c17.95,6.396,45.152,15.653,57.295-5.236c5.31-9.141,8.907-35.776,6.944-60.033
	c-0.112-1.38-0.24-2.751-0.389-4.112c-1.661-15.223-5.662-29.024-12.997-36.282c-5.521-5.463-12.93-7.22-22.649-3.085
	c-4.768,2.027-9.481,4.271-14.101,6.723c-14.059,7.461-27.245,16.861-38.387,28.062
	C740.403,503.703,720.544,526.705,722.022,541.783z"/>
<path style="fill:#772118;" d="M1699.895,925.688c1.445-2.484,2.761-6.265,3.875-10.937c3.216-13.49,4.73-34.428,2.681-53.207
	c-2.91-26.68-13.012-48.995-35.646-39.368c-19.275,8.199-37.685,19.903-52.49,34.785c-8.483,8.528-33.568,37.782-23.455,51.742
	c2.459,3.396,10.351,5.883,14.088,8.353c10.486,6.931,21.829,9.656,33.654,13.868c11.103,3.956,25.745,9.006,38.174,7.34
	C1688.441,937.238,1695.264,933.656,1699.895,925.688z"/>
<path style="fill:#772118;" d="M1194.074,987.996c-5.613,2.388-11.151,5.074-16.549,8.048c-13.14,7.239-25.447,16.189-35.941,26.737
	c-8.482,8.528-33.568,37.782-23.455,51.742c2.459,3.396,10.351,5.884,14.088,8.353c10.486,6.931,21.831,9.656,33.654,13.869
	c17.95,6.396,45.152,15.652,57.294-5.237c5.614-9.659,9.314-38.861,6.556-64.143c-2.163-19.835-8.302-37.257-20.609-40.935
	C1204.862,985.159,1199.88,985.526,1194.074,987.996z"/>
<path style="fill:#772118;" d="M1056.298,728.011c7.81-2.782,15.302-4.581,22.229-9.16c2.468-1.631,7.681-3.274,9.304-5.517
	c6.68-9.22-9.889-28.543-15.493-34.176c-9.778-9.829-21.938-17.56-34.669-22.975c-14.95-6.359-21.623,8.38-23.544,26.002
	c-1.823,16.699,0.621,35.987,4.33,42.368C1026.475,738.35,1044.442,732.236,1056.298,728.011z"/>
<path style="fill:#772118;" d="M649.032,1477.604c4.132-1.473,8.097-2.425,11.762-4.847c1.307-0.864,4.065-1.733,4.925-2.92
	c3.535-4.879-5.234-15.104-8.199-18.085c-5.176-5.202-11.61-9.293-18.347-12.158c-7.911-3.365-11.442,4.435-12.459,13.76
	c-0.963,8.837,0.329,19.044,2.291,22.42C633.25,1483.074,642.758,1479.839,649.032,1477.604z"/>
<path style="fill:#772118;" d="M1274.299,463.789c4.133-1.472,8.098-2.425,11.763-4.847c1.307-0.863,4.064-1.733,4.925-2.919
	c3.535-4.88-5.234-15.105-8.199-18.085c-5.174-5.202-11.609-9.293-18.347-12.158c-7.911-3.366-11.442,4.434-12.46,13.76
	c-0.963,8.837,0.329,19.044,2.292,22.42C1258.517,469.26,1268.025,466.024,1274.299,463.789z"/>
<path style="fill:#772118;" d="M1053.02,1171.966c-7.911-3.365-11.442,4.435-12.459,13.76c-0.963,8.836,0.329,19.044,2.291,22.42
	c4.245,7.301,13.753,4.066,20.027,1.83c4.132-1.472,8.097-2.424,11.762-4.847c1.307-0.864,4.065-1.733,4.925-2.921
	c3.535-4.879-5.234-15.104-8.198-18.085C1066.193,1178.923,1059.758,1174.832,1053.02,1171.966z"/>
<path style="fill:#772118;" d="M735.479,1035.711c-16.463-0.605-34.361,1.591-47.51,4.921c-7.29,1.847-13.122,4.042-16.437,6.302
	c-20.102,13.705-8.838,40.356-1.117,57.921c5.087,11.571,8.642,22.767,16.362,32.798c2.75,3.574,5.82,11.32,9.408,13.544
	c14.752,9.146,42.32-18.163,50.271-27.299c12.033-13.827,21.468-30.204,28.223-47.32c1.035-2.622,2.009-5.261,2.917-7.911
	C785.627,1045.238,762.484,1036.705,735.479,1035.711z"/>
<path style="fill:#772118;" d="M839.341,1580.183c5.086,11.57,8.642,22.766,16.362,32.798c2.751,3.574,5.82,11.32,9.408,13.544
	c14.751,9.146,42.319-18.163,50.27-27.299c13.876-15.944,24.299-35.281,31.14-55.232c4.664-13.602-1.181-22.182-12.19-27.182
	c-7.953-3.611-18.6-5.355-29.926-5.772c-25.591-0.942-54.652,4.885-63.948,11.222c-2.097,1.43-3.854,3.002-5.308,4.69
	C822.67,1541.432,832.426,1564.451,839.341,1580.183z"/>
<path style="fill:#772118;" d="M1452.653,1559.089c2.75,3.575,5.82,11.32,9.408,13.545c14.752,9.146,42.319-18.163,50.271-27.299
	c13.876-15.944,24.299-35.281,31.14-55.232c8.033-23.428-15.11-31.96-42.115-32.954c-25.591-0.942-54.652,4.885-63.948,11.222
	c-20.102,13.705-8.838,40.355-1.116,57.921C1441.378,1537.862,1444.933,1549.058,1452.653,1559.089z"/>
</svg>
