<svg xmlns="http://www.w3.org/2000/svg" viewBox="0 0 865.65 185.34" width="865" height="185"><g id="Layer_2" data-name="Layer 2"><g id="Capa_1" data-name="Capa 1"><path d="M2.94,134.92V7.8H18.11L45.05,84.07,43.68,49.4V7.8H61.09V134.92H47.36L19.7,56l1.08,33.36v45.58Z"/><path d="M622.9,129.91V2.79h15.16L665,79.06l-1.37-34.67V2.79H681V129.91H667.31L639.65,51l1.09,33.37v45.58Z"/><path d="M95.75,136.22q-8.18,0-13.4-2.6a19.31,19.31,0,0,1-8.16-7.51,33.65,33.65,0,0,1-4.08-11.81A92.75,92.75,0,0,1,69,98.88V58.5A56.27,56.27,0,0,1,70.5,44.78a28.91,28.91,0,0,1,4.84-10.47,21.4,21.4,0,0,1,8.56-6.68,31,31,0,0,1,12.71-2.35,30.41,30.41,0,0,1,12.64,2.31,18.64,18.64,0,0,1,8,6.72,29.57,29.57,0,0,1,4.19,10.58,70.18,70.18,0,0,1,1.27,14V82.05H88.23v21.31A52.26,52.26,0,0,0,89.46,116q1.23,4.77,6.72,4.77c2.45,0,4.2-.74,5.24-2.24a12.55,12.55,0,0,0,1.87-6.17c.22-2.63.33-5.62.33-9V93.82h18.92V99.6a102.51,102.51,0,0,1-1.05,15.53,31.14,31.14,0,0,1-3.9,11.48,18.23,18.23,0,0,1-8.12,7.15Q104.19,136.22,95.75,136.22ZM88.16,70.85h15.46V57a68.81,68.81,0,0,0-.51-9.14,11.36,11.36,0,0,0-2-5.6,5.59,5.59,0,0,0-4.62-1.88c-2.56,0-4.42.75-5.6,2.24a12,12,0,0,0-2.24,6.11,73.91,73.91,0,0,0-.47,8.77Z"/><path d="M146.8,136q-11.13,0-15.42-8.09t-4.44-21.45V99.53q0-8.67,2.49-14.09a22.31,22.31,0,0,1,7.11-8.81,49.17,49.17,0,0,1,11.06-5.92q6.42-2.53,14.3-5.42V55.83a70,70,0,0,0-.44-8.78,8.18,8.18,0,0,0-2-4.8,6.39,6.39,0,0,0-4.69-1.51,6.56,6.56,0,0,0-4.73,1.55,8.45,8.45,0,0,0-2.21,4.76,48.49,48.49,0,0,0-.57,8.2v4.84H128.38V56.84a62.73,62.73,0,0,1,1.27-13.29,25.39,25.39,0,0,1,4.29-9.93,19,19,0,0,1,8.27-6.21,35.25,35.25,0,0,1,13.19-2.13,32.42,32.42,0,0,1,12,2,19,19,0,0,1,8.09,5.93A25.34,25.34,0,0,1,180,43.05a58.14,58.14,0,0,1,1.45,13.79v78.08H162.18V124.16a16.6,16.6,0,0,1-3,5.81,15.89,15.89,0,0,1-5.23,4.37A15.13,15.13,0,0,1,146.8,136Zm6.65-14.73a7.14,7.14,0,0,0,5.77-2.6,11.7,11.7,0,0,0,2.68-5.28V76.13c-2.89,1.3-5.33,2.51-7.3,3.64a19.56,19.56,0,0,0-4.77,3.72,12.18,12.18,0,0,0-2.6,4.77,24.48,24.48,0,0,0-.79,6.72v12.13q0,7.44,1.55,10.8A5.54,5.54,0,0,0,153.45,121.27Z"/><path d="M189.62,134.92V26.58h19.29V38.64a18.61,18.61,0,0,1,6.53-9.82q4.67-3.54,11.88-3.54a7.69,7.69,0,0,1,.18,2.45c0,1.64,0,3.52,0,5.64v8.09a35.8,35.8,0,0,0-7.19.79,27.13,27.13,0,0,0-7,2.42,9.56,9.56,0,0,0-4.44,4.3v85.95Z"/><path d="M252.74,136.29q-13.08,0-19.43-7.44T227,104.51v-7h18v8.74q0,7.08,1.73,10.77a5.84,5.84,0,0,0,5.63,3.68,6.38,6.38,0,0,0,5.57-2.53c1.2-1.68,1.8-4.6,1.8-8.74a23.51,23.51,0,0,0-1.05-7,25.3,25.3,0,0,0-3.25-6.69,34,34,0,0,0-5.67-6.39L240,80.53a41.9,41.9,0,0,1-10-13.11,36.06,36.06,0,0,1-3.32-15.56q0-13.8,6.47-20.19t19.17-6.39q8.24,0,13.65,3.07A18.69,18.69,0,0,1,274,38.28q2.67,6.87,2.67,18.42v5.92H259.53V55.47q0-7.15-1.63-10.83A5.63,5.63,0,0,0,252.38,41c-2.56,0-4.43.71-5.64,2.13s-1.85,3.91-2,7.48a18.8,18.8,0,0,0,.73,5.67A19.94,19.94,0,0,0,248,61.64a26.9,26.9,0,0,0,4.44,5.17l10.26,9.32a50.68,50.68,0,0,1,12,15.24,38.82,38.82,0,0,1,3.86,17.19q0,13.65-6.21,20.69T252.74,136.29Z"/><path d="M283.21,134.92V6.72h19.14V39a19.77,19.77,0,0,1,5.81-9.64,15.53,15.53,0,0,1,11-4.08q9.46,0,14.26,6.25t4.81,18.09v85.3H319.18V51.42c0-3.46-.67-6.07-2-7.83A6.66,6.66,0,0,0,311.52,41a7.78,7.78,0,0,0-5,1.66,10.06,10.06,0,0,0-3.1,4.7,21.63,21.63,0,0,0-1,7.08v80.53Z"/><path d="M372.62,136.22a31.4,31.4,0,0,1-13.08-2.42,19.69,19.69,0,0,1-8.34-7,30.84,30.84,0,0,1-4.4-11.19,75.8,75.8,0,0,1-1.34-15.06V60a56.36,56.36,0,0,1,2.64-18,24.48,24.48,0,0,1,8.63-12.28q6-4.44,15.89-4.44a28.58,28.58,0,0,1,12.67,2.53A21,21,0,0,1,393.6,35a32.37,32.37,0,0,1,4.58,11,62.87,62.87,0,0,1,1.45,14v40.52a79.45,79.45,0,0,1-1.26,14.88A30.87,30.87,0,0,1,394,126.65a19.81,19.81,0,0,1-8.27,7.11A30.75,30.75,0,0,1,372.62,136.22Zm0-15.46a6.06,6.06,0,0,0,4.91-2,11.47,11.47,0,0,0,2.24-5.53,51.83,51.83,0,0,0,.57-8.16V56.63a46.94,46.94,0,0,0-.65-8.46,11.5,11.5,0,0,0-2.31-5.48,5.91,5.91,0,0,0-4.76-1.95,6.2,6.2,0,0,0-4.95,1.95,11.13,11.13,0,0,0-2.31,5.48,50.15,50.15,0,0,0-.62,8.46v48.46a48.07,48.07,0,0,0,.62,8.16,11.4,11.4,0,0,0,2.31,5.53A6.16,6.16,0,0,0,372.62,120.76Z"/><path d="M407.49,134.92V26.58h19.29V38.64a18.61,18.61,0,0,1,6.53-9.82q4.67-3.54,11.88-3.54a7.83,7.83,0,0,1,.19,2.45q0,2.46,0,5.64v8.09a35.88,35.88,0,0,0-7.19.79,27.13,27.13,0,0,0-7,2.42,9.56,9.56,0,0,0-4.44,4.3v85.95Z"/><path d="M448.44,16.61V0h19.28V16.61Zm.07,118.31V26.58h19.14V134.92Z"/><path d="M477.32,134.92V26.58h19.14V39a19,19,0,0,1,6.06-9.64,16.52,16.52,0,0,1,11.34-4.08q9.39,0,14.09,6.25t4.69,18.09v85.3H513.5V50.77a11.49,11.49,0,0,0-2.13-7.36,7,7,0,0,0-5.81-2.67,7.85,7.85,0,0,0-5,1.62,9.55,9.55,0,0,0-3.07,4.48,19.84,19.84,0,0,0-1,6.68v81.4Z"/><path d="M565.78,151.17a51.45,51.45,0,0,1-15.23-1.7,32.29,32.29,0,0,1-11.42-6l6.72-12.06a38.7,38.7,0,0,0,8.34,4,29,29,0,0,0,9.79,1.48q5.49-.08,8.38-3.83t2.89-10v-8.59q-1.89,5.41-5.74,7.44a20.09,20.09,0,0,1-9.36,2q-7.65,0-12-4.05a22.06,22.06,0,0,1-6.18-11,64,64,0,0,1-1.81-15.89V58A69,69,0,0,1,542,41.13a23.43,23.43,0,0,1,6.43-11.66Q553,25.21,561,25.28a13.78,13.78,0,0,1,14.3,10.91V26.58h19.14v95a45.65,45.65,0,0,1-1.45,11.81,23.68,23.68,0,0,1-4.77,9.31,21.89,21.89,0,0,1-8.81,6.14A38.51,38.51,0,0,1,565.78,151.17Zm2-41.82A6,6,0,0,0,572,107.8q1.65-1.56,2.45-5.35a54.32,54.32,0,0,0,.8-10.58V56.41A30.77,30.77,0,0,0,573.51,45a7,7,0,0,0-11.41-2.24,11,11,0,0,0-2.17,5.52,58.16,58.16,0,0,0-.5,8.06V92A42,42,0,0,0,561,104.69Q562.47,109.35,567.73,109.35Z"/><path d="M713.35,132.9q-7.79,0-12.77-2.47a18.36,18.36,0,0,1-7.77-7.16A32.31,32.31,0,0,1,688.92,112a89.68,89.68,0,0,1-1.1-14.68V58.87A53.2,53.2,0,0,1,689.3,45.8a27.39,27.39,0,0,1,4.61-10,20.47,20.47,0,0,1,8.15-6.37,29.69,29.69,0,0,1,12.11-2.23,28.91,28.91,0,0,1,12,2.2,17.73,17.73,0,0,1,7.6,6.4,28.27,28.27,0,0,1,4,10.08A66.92,66.92,0,0,1,739,59.22V81.3H706.19v20.3a49.94,49.94,0,0,0,1.17,12q1.17,4.55,6.4,4.54,3.51,0,5-2.13a12.1,12.1,0,0,0,1.79-5.88c.2-2.5.31-5.36.31-8.57V92.52h18V98a97.41,97.41,0,0,1-1,14.8,29.47,29.47,0,0,1-3.71,10.93,17.33,17.33,0,0,1-7.74,6.81Q721.4,132.9,713.35,132.9Zm-7.23-62.26h14.73V57.43a66.29,66.29,0,0,0-.48-8.7,10.93,10.93,0,0,0-1.93-5.34,5.32,5.32,0,0,0-4.4-1.78q-3.66,0-5.34,2.13a11.49,11.49,0,0,0-2.13,5.81,69.57,69.57,0,0,0-.45,8.36Z"/><path d="M751.9,131.67,738.07,28.47h15.35L758.65,72,761,94.17h.42L763.67,72l6.12-43.48H786l6.74,42.65,2.89,23h.41l2-23,4.61-42.72H818l-13.07,103.2h-16L778.46,54.13l-11.15,77.54Z"/><path d="M841.09,133q-12.45,0-18.5-7.08t-6.06-23.19V96h17.13v8.32c0,4.5.55,7.91,1.65,10.25a5.56,5.56,0,0,0,5.37,3.51,6.06,6.06,0,0,0,5.3-2.41c1.14-1.6,1.72-4.38,1.72-8.32a22.64,22.64,0,0,0-1-6.67,24.15,24.15,0,0,0-3.1-6.37,33,33,0,0,0-5.4-6.09l-9.28-8.39a39.79,39.79,0,0,1-9.57-12.49,34.28,34.28,0,0,1-3.16-14.82q0-13.15,6.16-19.24t18.26-6.08q7.85,0,13,2.92a17.79,17.79,0,0,1,7.71,9.46q2.53,6.54,2.55,17.54v5.64H847.56V56q0-6.83-1.55-10.32a5.37,5.37,0,0,0-5.26-3.52q-3.64,0-5.37,2t-1.86,7.12a18.29,18.29,0,0,0,.69,5.4,19.62,19.62,0,0,0,2.38,5.16,25.7,25.7,0,0,0,4.23,4.92l9.77,8.87A48.33,48.33,0,0,1,862,90.18a36.82,36.82,0,0,1,3.68,16.37q0,13-5.91,19.71T841.09,133Z"/><path d="M7.43,177.52,0,151.18H5.13l4.75,19.36h.24l5.07-19.36h4.67l5.08,19.37h.23l4.74-19.37h5.14l-7.44,26.34h-4.7L17.63,159h-.2l-5.29,18.48Z"/><path d="M47.8,177.91a10,10,0,0,1-5.12-1.25,8.31,8.31,0,0,1-3.32-3.52,13.06,13.06,0,0,1,0-10.74,8.75,8.75,0,0,1,3.26-3.6,9.22,9.22,0,0,1,4.93-1.29,10.12,10.12,0,0,1,3.45.58,7.77,7.77,0,0,1,2.88,1.81,8.48,8.48,0,0,1,2,3.11,12.53,12.53,0,0,1,.72,4.48v1.43H40.39v-3.14H52.12a5.06,5.06,0,0,0-.58-2.39A4.16,4.16,0,0,0,50,161.74a4.52,4.52,0,0,0-2.35-.61,4.57,4.57,0,0,0-2.51.69,4.73,4.73,0,0,0-1.67,1.8,5.2,5.2,0,0,0-.62,2.44v2.74a6.39,6.39,0,0,0,.63,2.95,4.41,4.41,0,0,0,1.77,1.88,5.23,5.23,0,0,0,2.65.65,5.64,5.64,0,0,0,1.84-.29,4,4,0,0,0,1.42-.86,3.5,3.5,0,0,0,.92-1.4l4.34.49a6.66,6.66,0,0,1-1.56,3,7.62,7.62,0,0,1-2.94,2A11.27,11.27,0,0,1,47.8,177.91Z"/><path d="M68.7,177.52V151.18h4.66V161h.19a8.86,8.86,0,0,1,1-1.54,5.52,5.52,0,0,1,1.77-1.4,6.17,6.17,0,0,1,2.86-.58,7.64,7.64,0,0,1,4.13,1.16,8,8,0,0,1,2.93,3.44,12.7,12.7,0,0,1,1.09,5.56,12.84,12.84,0,0,1-1.07,5.53,8.14,8.14,0,0,1-2.9,3.47,7.48,7.48,0,0,1-4.17,1.2,6.21,6.21,0,0,1-2.82-.57,5.63,5.63,0,0,1-1.79-1.37,8.35,8.35,0,0,1-1-1.52h-.27v3.11Zm4.57-9.88a9.55,9.55,0,0,0,.54,3.36,5,5,0,0,0,1.59,2.24,3.94,3.94,0,0,0,2.51.81,4.06,4.06,0,0,0,2.59-.83,5.13,5.13,0,0,0,1.57-2.28,9.36,9.36,0,0,0,.54-3.3,9.5,9.5,0,0,0-.53-3.27,4.91,4.91,0,0,0-1.57-2.23,4.54,4.54,0,0,0-5.13,0,4.84,4.84,0,0,0-1.58,2.2A9.57,9.57,0,0,0,73.27,167.64Z"/><path d="M90.82,177.52V157.76h4.51v3.3h.21a5,5,0,0,1,1.86-2.65,5.09,5.09,0,0,1,3-.93l.87,0c.32,0,.59.06.8.1v4.28a4.44,4.44,0,0,0-.93-.18,8.69,8.69,0,0,0-1.23-.09,4.66,4.66,0,0,0-2.28.55,4.12,4.12,0,0,0-1.59,1.51,4.31,4.31,0,0,0-.58,2.23v11.61Z"/><path d="M105.29,156.69a2.72,2.72,0,0,1-1.9-.74,2.4,2.4,0,0,1,0-3.58,2.82,2.82,0,0,1,3.81,0,2.42,2.42,0,0,1,0,3.58A2.71,2.71,0,0,1,105.29,156.69ZM103,177.52V157.76h4.66v19.76Z"/><path d="M116.54,165.94v11.58h-4.66V157.76h4.45v3.36h.24a5.61,5.61,0,0,1,2.18-2.63,6.57,6.57,0,0,1,3.71-1,7.1,7.1,0,0,1,3.57.87,6,6,0,0,1,2.36,2.54,8.66,8.66,0,0,1,.83,4v12.58h-4.65V165.66a4.4,4.4,0,0,0-1-3.1,3.65,3.65,0,0,0-2.82-1.12,4.31,4.31,0,0,0-2.17.54,3.76,3.76,0,0,0-1.48,1.53A5.19,5.19,0,0,0,116.54,165.94Z"/><path d="M140.33,185.34a12.26,12.26,0,0,1-4.31-.68,7.8,7.8,0,0,1-2.9-1.8,6.31,6.31,0,0,1-1.51-2.51l4.19-1a4.63,4.63,0,0,0,.82,1.15,4.31,4.31,0,0,0,1.46,1,6.23,6.23,0,0,0,2.32.37,5.36,5.36,0,0,0,3.28-.95,3.65,3.65,0,0,0,1.3-3.15V174h-.23a6.78,6.78,0,0,1-1.05,1.48,5.38,5.38,0,0,1-1.81,1.27,6.67,6.67,0,0,1-2.82.52,8,8,0,0,1-4.13-1.08A7.52,7.52,0,0,1,132,173a11.89,11.89,0,0,1-1.08-5.37,12.63,12.63,0,0,1,1.08-5.5,8.11,8.11,0,0,1,2.94-3.41,7.66,7.66,0,0,1,4.13-1.16,6.17,6.17,0,0,1,2.86.58,5.61,5.61,0,0,1,1.79,1.4,7.84,7.84,0,0,1,1,1.54H145v-3.27h4.59v20.08a6.89,6.89,0,0,1-1.21,4.19,7.3,7.3,0,0,1-3.3,2.49A13,13,0,0,1,140.33,185.34Zm0-11.76a4.35,4.35,0,0,0,2.52-.72,4.46,4.46,0,0,0,1.58-2.07,8.72,8.72,0,0,0,.54-3.24,9,9,0,0,0-.54-3.26,4.64,4.64,0,0,0-1.56-2.18,4.55,4.55,0,0,0-5.14,0,4.86,4.86,0,0,0-1.57,2.22,9,9,0,0,0-.53,3.19,8.73,8.73,0,0,0,.53,3.17,4.58,4.58,0,0,0,1.59,2.11A4.3,4.3,0,0,0,140.37,173.58Z"/><path d="M162.36,177.52V157.76h4.45v3.36H167a5.23,5.23,0,0,1,2.05-2.65,5.93,5.93,0,0,1,3.4-1,5.72,5.72,0,0,1,3.39,1,5.21,5.21,0,0,1,2,2.64H178a5.35,5.35,0,0,1,2.22-2.63,6.84,6.84,0,0,1,3.71-1,6,6,0,0,1,4.45,1.72,6.86,6.86,0,0,1,1.72,5v13.26h-4.67V165a3.43,3.43,0,0,0-1-2.7,3.55,3.55,0,0,0-2.39-.85,3.36,3.36,0,0,0-2.63,1,3.9,3.9,0,0,0-.94,2.72v12.32H174V164.79a3.32,3.32,0,0,0-.92-2.45,3.24,3.24,0,0,0-2.4-.91,3.35,3.35,0,0,0-1.82.51,3.66,3.66,0,0,0-1.32,1.43,4.54,4.54,0,0,0-.49,2.14v12Z"/><path d="M198.32,177.92a8.11,8.11,0,0,1-3.37-.68,5.39,5.39,0,0,1-2.37-2,5.81,5.81,0,0,1-.87-3.26,5.59,5.59,0,0,1,.62-2.77,4.73,4.73,0,0,1,1.69-1.75,8.55,8.55,0,0,1,2.41-1,20.4,20.4,0,0,1,2.78-.49q1.74-.18,2.82-.33a4.09,4.09,0,0,0,1.57-.46,1.09,1.09,0,0,0,.5-1v-.07a2.92,2.92,0,0,0-.86-2.25,3.54,3.54,0,0,0-2.48-.8,4.4,4.4,0,0,0-2.71.75,3.67,3.67,0,0,0-1.35,1.76l-4.34-.62a7,7,0,0,1,1.69-3,7.56,7.56,0,0,1,2.9-1.83,11.1,11.1,0,0,1,3.78-.61,12.44,12.44,0,0,1,2.84.33,8.3,8.3,0,0,1,2.59,1.1A5.57,5.57,0,0,1,208,161a6.75,6.75,0,0,1,.71,3.28v13.22h-4.47v-2.71h-.16a5.57,5.57,0,0,1-1.18,1.53,5.68,5.68,0,0,1-1.92,1.15A7.88,7.88,0,0,1,198.32,177.92Zm1.21-3.42a5,5,0,0,0,2.43-.56,4,4,0,0,0,1.59-1.49,3.78,3.78,0,0,0,.56-2v-2.32a2.26,2.26,0,0,1-.74.33c-.35.1-.73.19-1.16.27l-1.27.21-1.1.15a8.17,8.17,0,0,0-1.86.46,3.22,3.22,0,0,0-1.3.9,2.2,2.2,0,0,0-.48,1.47,2.23,2.23,0,0,0,.94,1.94A4.06,4.06,0,0,0,199.53,174.5Z"/><path d="M212.94,177.52V157.76h4.52v3.3h.2a5,5,0,0,1,1.86-2.65,5.1,5.1,0,0,1,3-.93l.86,0c.33,0,.59.06.81.1v4.28a4.74,4.74,0,0,0-.93-.18,8.91,8.91,0,0,0-1.23-.09,4.7,4.7,0,0,0-2.29.55,4,4,0,0,0-1.58,1.51,4.21,4.21,0,0,0-.58,2.23v11.61Z"/><path d="M225.08,177.52V151.18h4.65v26.34Zm4.24-6.2V165.7h.74l7.1-7.94h5.44l-8.73,9.73h-1Zm8.15,6.2-6.43-9,3.14-3.28L243,177.52Z"/><path d="M254.82,177.91a10.1,10.1,0,0,1-5.13-1.25,8.28,8.28,0,0,1-3.31-3.52,13,13,0,0,1,0-10.74,8.69,8.69,0,0,1,3.26-3.6,9.21,9.21,0,0,1,4.92-1.29,10.18,10.18,0,0,1,3.46.58,7.93,7.93,0,0,1,2.88,1.81,8.46,8.46,0,0,1,2,3.11,12.53,12.53,0,0,1,.72,4.48v1.43H247.41v-3.14h11.73a5.06,5.06,0,0,0-.58-2.39,4.23,4.23,0,0,0-1.57-1.65,4.87,4.87,0,0,0-4.86.08,4.83,4.83,0,0,0-1.68,1.8,5.19,5.19,0,0,0-.61,2.44v2.74a6.39,6.39,0,0,0,.63,2.95,4.45,4.45,0,0,0,1.76,1.88,5.28,5.28,0,0,0,2.65.65,5.59,5.59,0,0,0,1.84-.29,3.91,3.91,0,0,0,1.43-.86,3.48,3.48,0,0,0,.91-1.4l4.35.49a6.76,6.76,0,0,1-1.56,3,7.62,7.62,0,0,1-2.94,2A11.31,11.31,0,0,1,254.82,177.91Z"/><path d="M276.9,157.76v3.61H265.54v-3.61ZM268.34,153H273v18.55a2.91,2.91,0,0,0,.29,1.43,1.51,1.51,0,0,0,.76.68,3,3,0,0,0,1.06.18,4,4,0,0,0,.8-.07l.56-.11.79,3.64c-.25.08-.61.18-1.06.28a9.39,9.39,0,0,1-1.68.18,7.57,7.57,0,0,1-3.15-.53,4.8,4.8,0,0,1-2.22-1.82,5.39,5.39,0,0,1-.81-3.09Z"/><path d="M295.6,163l-4.24.46a3.43,3.43,0,0,0-.63-1.21,3.11,3.11,0,0,0-1.18-.91,4.36,4.36,0,0,0-1.83-.35,4.45,4.45,0,0,0-2.44.63,1.85,1.85,0,0,0-1,1.63,1.69,1.69,0,0,0,.64,1.41,5.29,5.29,0,0,0,2.15.88l3.37.72a8.63,8.63,0,0,1,4.17,1.92A4.56,4.56,0,0,1,296,171.6a5.35,5.35,0,0,1-1.09,3.29,7,7,0,0,1-3,2.22,11.24,11.24,0,0,1-4.37.8,10.09,10.09,0,0,1-5.84-1.53,6.1,6.1,0,0,1-2.64-4.25l4.54-.44a3.19,3.19,0,0,0,1.32,2,4.52,4.52,0,0,0,2.61.68,4.68,4.68,0,0,0,2.67-.68,2,2,0,0,0,1-1.68,1.76,1.76,0,0,0-.65-1.4,4.59,4.59,0,0,0-2-.85l-3.37-.71a8,8,0,0,1-4.2-2,4.87,4.87,0,0,1-1.35-3.57,5,5,0,0,1,1-3.17,6.51,6.51,0,0,1,2.81-2.08,10.85,10.85,0,0,1,4.17-.74,9,9,0,0,1,5.48,1.48A6.19,6.19,0,0,1,295.6,163Z"/><path d="M316.46,177.91a9.56,9.56,0,0,1-5.07-1.3,8.65,8.65,0,0,1-3.25-3.6,11.73,11.73,0,0,1-1.14-5.29,11.61,11.61,0,0,1,1.16-5.32,8.64,8.64,0,0,1,3.27-3.6,9.43,9.43,0,0,1,5-1.29,9.8,9.8,0,0,1,4.26.88,7.37,7.37,0,0,1,3,2.48,7.52,7.52,0,0,1,1.26,3.74h-4.45a4.34,4.34,0,0,0-1.28-2.39,3.76,3.76,0,0,0-2.7-1,4.21,4.21,0,0,0-2.5.77,5,5,0,0,0-1.68,2.19,8.79,8.79,0,0,0-.6,3.42,9.26,9.26,0,0,0,.59,3.47,5,5,0,0,0,1.67,2.22,4.15,4.15,0,0,0,2.52.78,4.25,4.25,0,0,0,1.85-.39,3.67,3.67,0,0,0,1.37-1.14,4.43,4.43,0,0,0,.76-1.81h4.45a7.73,7.73,0,0,1-1.24,3.71,7.34,7.34,0,0,1-2.9,2.52A9.76,9.76,0,0,1,316.46,177.91Z"/><path d="M347.53,177.91a9.58,9.58,0,0,1-5-1.28,8.56,8.56,0,0,1-3.28-3.56,12.84,12.84,0,0,1,0-10.71,8.55,8.55,0,0,1,3.28-3.58,10.54,10.54,0,0,1,10,0,8.57,8.57,0,0,1,3.29,3.58,12.94,12.94,0,0,1,0,10.71,8.58,8.58,0,0,1-3.29,3.56A9.52,9.52,0,0,1,347.53,177.91Zm0-3.73a4,4,0,0,0,2.63-.87,5.24,5.24,0,0,0,1.57-2.34,9.57,9.57,0,0,0,.52-3.26,9.75,9.75,0,0,0-.52-3.29,5.33,5.33,0,0,0-1.57-2.35,4,4,0,0,0-2.63-.87,4.08,4.08,0,0,0-2.67.87,5.35,5.35,0,0,0-1.58,2.35,9.75,9.75,0,0,0-.52,3.29,9.57,9.57,0,0,0,.52,3.26,5.26,5.26,0,0,0,1.58,2.34A4.08,4.08,0,0,0,347.55,174.18Z"/><path d="M376,163l-4.24.46a3.57,3.57,0,0,0-.62-1.21,3.23,3.23,0,0,0-1.19-.91,4.36,4.36,0,0,0-1.83-.35,4.45,4.45,0,0,0-2.44.63,1.85,1.85,0,0,0-1,1.63,1.72,1.72,0,0,0,.64,1.41,5.29,5.29,0,0,0,2.15.88l3.37.72a8.71,8.71,0,0,1,4.18,1.92,4.59,4.59,0,0,1,1.38,3.43,5.35,5.35,0,0,1-1.09,3.29,7,7,0,0,1-3,2.22,11.29,11.29,0,0,1-4.38.8,10.09,10.09,0,0,1-5.84-1.53,6.06,6.06,0,0,1-2.63-4.25l4.54-.44a3.14,3.14,0,0,0,1.31,2,4.52,4.52,0,0,0,2.61.68,4.66,4.66,0,0,0,2.67-.68,2,2,0,0,0,1-1.68,1.76,1.76,0,0,0-.65-1.4,4.55,4.55,0,0,0-2-.85l-3.37-.71a8,8,0,0,1-4.21-2,4.87,4.87,0,0,1-1.35-3.57,5,5,0,0,1,1-3.17,6.51,6.51,0,0,1,2.81-2.08,10.87,10.87,0,0,1,4.18-.74,9,9,0,0,1,5.47,1.48A6.19,6.19,0,0,1,376,163Z"/><path d="M388.54,177.91a10,10,0,0,1-5.12-1.25,8.22,8.22,0,0,1-3.31-3.52,11.66,11.66,0,0,1-1.16-5.38,11.85,11.85,0,0,1,1.16-5.36,8.75,8.75,0,0,1,3.26-3.6,9.22,9.22,0,0,1,4.93-1.29,10.08,10.08,0,0,1,3.45.58,7.77,7.77,0,0,1,2.88,1.81,8.48,8.48,0,0,1,2,3.11,12.53,12.53,0,0,1,.72,4.48v1.43H381.14v-3.14h11.72a4.94,4.94,0,0,0-.58-2.39,4.16,4.16,0,0,0-1.57-1.65,4.49,4.49,0,0,0-2.35-.61,4.59,4.59,0,0,0-2.51.69,4.73,4.73,0,0,0-1.67,1.8,5.07,5.07,0,0,0-.61,2.44v2.74a6.39,6.39,0,0,0,.63,2.95,4.39,4.39,0,0,0,1.76,1.88,5.26,5.26,0,0,0,2.65.65,5.64,5.64,0,0,0,1.84-.29,4,4,0,0,0,1.42-.86,3.5,3.5,0,0,0,.92-1.4l4.34.49a6.66,6.66,0,0,1-1.56,3,7.62,7.62,0,0,1-2.94,2A11.27,11.27,0,0,1,388.54,177.91Z"/><path d="M400.75,177.52V157.76h4.52v3.3h.21a5,5,0,0,1,1.85-2.65,5.12,5.12,0,0,1,3-.93l.87,0c.32,0,.59.06.8.1v4.28a4.74,4.74,0,0,0-.93-.18,8.8,8.8,0,0,0-1.23-.09,4.63,4.63,0,0,0-2.28.55,4.06,4.06,0,0,0-1.59,1.51,4.21,4.21,0,0,0-.58,2.23v11.61Z"/><path d="M336.38,173.69l-.56.11a4,4,0,0,1-.8.07,3,3,0,0,1-1.06-.18,1.51,1.51,0,0,1-.76-.68,2.91,2.91,0,0,1-.29-1.43V153h0v-1.85h-4.66l.08,1.85h-.08v19.32a5.39,5.39,0,0,0,.81,3.09,4.8,4.8,0,0,0,2.22,1.82,7.57,7.57,0,0,0,3.15.53,9.16,9.16,0,0,0,1.67-.18c.46-.1.82-.2,1.07-.28Z"/></g></g></svg>