<svg xmlns="http://www.w3.org/2000/svg" viewBox="0 0 591.71 187.42"><defs><style>.cls-1{fill:#fff;}</style></defs><g id="Layer_2" data-name="Layer 2"><g id="Capa_1" data-name="Capa 1"><path class="cls-1" d="M.27,134.92V7.8H15.44L42.38,84.07,41,49.4V7.8h17.4V134.92H44.69L17,56l1.08,33.36v45.58Z"/><path class="cls-1" d="M93.07,136.22q-8.16,0-13.39-2.6a19.28,19.28,0,0,1-8.17-7.51,33.86,33.86,0,0,1-4.08-11.81,93.89,93.89,0,0,1-1.15-15.42V58.5a55.78,55.78,0,0,1,1.55-13.72,28.91,28.91,0,0,1,4.84-10.47,21.4,21.4,0,0,1,8.56-6.68,31,31,0,0,1,12.71-2.35,30.41,30.41,0,0,1,12.64,2.31,18.64,18.64,0,0,1,8,6.72,29.57,29.57,0,0,1,4.19,10.58,70.22,70.22,0,0,1,1.26,14V82.05H85.56v21.31A52.26,52.26,0,0,0,86.79,116q1.23,4.77,6.72,4.77c2.45,0,4.2-.74,5.23-2.24a12.54,12.54,0,0,0,1.88-6.17c.22-2.63.33-5.62.33-9V93.82h18.92V99.6a102.51,102.51,0,0,1-1.05,15.53,31.14,31.14,0,0,1-3.9,11.48,18.23,18.23,0,0,1-8.12,7.15Q101.52,136.22,93.07,136.22ZM85.49,70.85H101V57a68.81,68.81,0,0,0-.51-9.14,11.36,11.36,0,0,0-2-5.6,5.59,5.59,0,0,0-4.62-1.88c-2.56,0-4.42.75-5.6,2.24A12,12,0,0,0,86,48.72a73.91,73.91,0,0,0-.47,8.77Z"/><path class="cls-1" d="M144.13,136q-11.13,0-15.42-8.09t-4.44-21.45V99.53q0-8.67,2.49-14.09a22.31,22.31,0,0,1,7.11-8.81,49.09,49.09,0,0,1,11-5.92q6.44-2.53,14.3-5.42V55.83a70.32,70.32,0,0,0-.43-8.78,8.18,8.18,0,0,0-1.95-4.8,6.4,6.4,0,0,0-4.69-1.51,6.55,6.55,0,0,0-4.73,1.55,8.45,8.45,0,0,0-2.21,4.76,48.36,48.36,0,0,0-.58,8.2v4.84H125.71V56.84A62.73,62.73,0,0,1,127,43.55a25.39,25.39,0,0,1,4.29-9.93,19,19,0,0,1,8.27-6.21,35.23,35.23,0,0,1,13.18-2.13,32.47,32.47,0,0,1,12,2,19,19,0,0,1,8.09,5.93,25.34,25.34,0,0,1,4.55,9.86,58.14,58.14,0,0,1,1.45,13.79v78.08H159.51V124.16a16.6,16.6,0,0,1-3,5.81,16,16,0,0,1-5.23,4.37A15.16,15.16,0,0,1,144.13,136Zm6.64-14.73a7.15,7.15,0,0,0,5.78-2.6,11.57,11.57,0,0,0,2.67-5.28V76.13c-2.88,1.3-5.32,2.51-7.29,3.64a19.37,19.37,0,0,0-4.77,3.72,12.18,12.18,0,0,0-2.6,4.77,24.48,24.48,0,0,0-.79,6.72v12.13q0,7.44,1.55,10.8A5.52,5.52,0,0,0,150.77,121.27Z"/><path class="cls-1" d="M187,134.92V26.58h19.28V38.64a18.63,18.63,0,0,1,6.54-9.82q4.66-3.54,11.88-3.54a7.69,7.69,0,0,1,.18,2.45c0,1.64,0,3.52,0,5.64v8.09a35.8,35.8,0,0,0-7.19.79,27.13,27.13,0,0,0-7,2.42,9.63,9.63,0,0,0-4.45,4.3v85.95Z"/><path class="cls-1" d="M250.07,136.29q-13.08,0-19.43-7.44t-6.36-24.34v-7h18v8.74q0,7.08,1.73,10.77a5.84,5.84,0,0,0,5.63,3.68,6.35,6.35,0,0,0,5.56-2.53c1.21-1.68,1.81-4.6,1.81-8.74a23.51,23.51,0,0,0-1.05-7,25.61,25.61,0,0,0-3.25-6.69A34.76,34.76,0,0,0,247,89.34l-9.75-8.81a41.75,41.75,0,0,1-10-13.11,36.06,36.06,0,0,1-3.32-15.56q0-13.8,6.47-20.19t19.17-6.39q8.24,0,13.65,3.07a18.69,18.69,0,0,1,8.09,9.93Q274,45.15,274,56.7v5.92H256.86V55.47q0-7.15-1.63-10.83A5.63,5.63,0,0,0,249.71,41q-3.84,0-5.64,2.13t-1.95,7.48a18.79,18.79,0,0,0,.72,5.67,20,20,0,0,0,2.5,5.41,26.9,26.9,0,0,0,4.44,5.17L260,76.13a50.56,50.56,0,0,1,12,15.24,38.82,38.82,0,0,1,3.86,17.19q0,13.65-6.21,20.69T250.07,136.29Z"/><path class="cls-1" d="M280.54,134.92V6.72h19.14V39a19.77,19.77,0,0,1,5.81-9.64,15.5,15.5,0,0,1,11-4.08q9.45,0,14.26,6.25t4.8,18.09v85.3H316.51V51.42c0-3.46-.67-6.07-2-7.83A6.67,6.67,0,0,0,308.85,41a7.78,7.78,0,0,0-5,1.66,10.15,10.15,0,0,0-3.11,4.7,21.91,21.91,0,0,0-1,7.08v80.53Z"/><path class="cls-1" d="M369.94,136.22a31.35,31.35,0,0,1-13.07-2.42,19.69,19.69,0,0,1-8.34-7,30.85,30.85,0,0,1-4.41-11.19,76.6,76.6,0,0,1-1.33-15.06V60a56.65,56.65,0,0,1,2.63-18,24.6,24.6,0,0,1,8.63-12.28q6-4.44,15.89-4.44a28.6,28.6,0,0,1,12.68,2.53A21,21,0,0,1,390.93,35a32.37,32.37,0,0,1,4.58,11A62.87,62.87,0,0,1,397,60v40.52a78.57,78.57,0,0,1-1.27,14.88,30.68,30.68,0,0,1-4.33,11.23,19.81,19.81,0,0,1-8.27,7.11Q377.89,136.22,369.94,136.22Zm0-15.46a6.07,6.07,0,0,0,4.92-2,11.37,11.37,0,0,0,2.23-5.53,50.57,50.57,0,0,0,.58-8.16V56.63a46.94,46.94,0,0,0-.65-8.46,11.5,11.5,0,0,0-2.31-5.48,5.93,5.93,0,0,0-4.77-1.95A6.2,6.2,0,0,0,365,42.69a11,11,0,0,0-2.31,5.48,50.15,50.15,0,0,0-.62,8.46v48.46a48.07,48.07,0,0,0,.62,8.16,11.22,11.22,0,0,0,2.31,5.53A6.15,6.15,0,0,0,369.94,120.76Z"/><path class="cls-1" d="M404.82,134.92V26.58h19.29V38.64a18.61,18.61,0,0,1,6.53-9.82q4.67-3.54,11.88-3.54a7.69,7.69,0,0,1,.18,2.45c0,1.64,0,3.52,0,5.64v8.09a35.8,35.8,0,0,0-7.19.79,27.13,27.13,0,0,0-7,2.42,9.56,9.56,0,0,0-4.44,4.3v85.95Z"/><path class="cls-1" d="M445.76,16.61V0h19.29V16.61Zm.08,118.31V26.58H465V134.92Z"/><path class="cls-1" d="M474.65,134.92V26.58h19.14V39a19,19,0,0,1,6.06-9.64,16.52,16.52,0,0,1,11.34-4.08q9.39,0,14.09,6.25T530,49.62v85.3H510.83V50.77a11.49,11.49,0,0,0-2.13-7.36,7,7,0,0,0-5.81-2.67,7.85,7.85,0,0,0-5,1.62,9.55,9.55,0,0,0-3.07,4.48,19.84,19.84,0,0,0-1,6.68v81.4Z"/><path class="cls-1" d="M563.11,151.17a51.56,51.56,0,0,1-15.24-1.7,32.25,32.25,0,0,1-11.41-6l6.72-12.06a38.7,38.7,0,0,0,8.34,4,29,29,0,0,0,9.79,1.48q5.49-.08,8.38-3.83t2.88-10v-8.59q-1.87,5.41-5.74,7.44a20,20,0,0,1-9.35,2q-7.65,0-12-4.05a22.12,22.12,0,0,1-6.17-11,64,64,0,0,1-1.81-15.89V58a69,69,0,0,1,1.88-16.87,23.43,23.43,0,0,1,6.43-11.66q4.54-4.26,12.49-4.19a13.76,13.76,0,0,1,14.3,10.91V26.58h19.14v95a45.66,45.66,0,0,1-1.44,11.81,23.68,23.68,0,0,1-4.77,9.31,21.89,21.89,0,0,1-8.81,6.14A38.56,38.56,0,0,1,563.11,151.17Zm1.95-41.82a6,6,0,0,0,4.26-1.55q1.66-1.56,2.46-5.35a54.46,54.46,0,0,0,.79-10.58V56.41q0-7.15-1.73-11.41a7,7,0,0,0-11.41-2.24,11,11,0,0,0-2.17,5.52,58.16,58.16,0,0,0-.5,8.06V92a42.39,42.39,0,0,0,1.51,12.67Q559.8,109.35,565.06,109.35Z"/><path class="cls-1" d="M0,186.88v-42H7.42v4.82A7.35,7.35,0,0,1,9.77,146a6.41,6.41,0,0,1,4.39-1.58,6.4,6.4,0,0,1,5.46,2.42c1.22,1.62,1.82,3.95,1.82,7v33.06H14V154.27a4.45,4.45,0,0,0-.82-2.85,2.73,2.73,0,0,0-2.26-1A3,3,0,0,0,9,151a3.74,3.74,0,0,0-1.19,1.74,7.76,7.76,0,0,0-.39,2.59v31.54Z"/><path class="cls-1" d="M34.05,187.39a11.67,11.67,0,0,1-5.19-1,7.44,7.44,0,0,1-3.17-2.91,13.3,13.3,0,0,1-1.58-4.58,37.29,37.29,0,0,1-.44-6V157.27a21.75,21.75,0,0,1,.6-5.32,11.1,11.1,0,0,1,1.87-4.06,8.39,8.39,0,0,1,3.32-2.59,12,12,0,0,1,4.93-.91,11.92,11.92,0,0,1,4.9.89,7.31,7.31,0,0,1,3.09,2.61A11.29,11.29,0,0,1,44,152a26.86,26.86,0,0,1,.49,5.42v9H31.14v8.26a20.12,20.12,0,0,0,.48,4.9,2.37,2.37,0,0,0,2.6,1.85,2.29,2.29,0,0,0,2-.87,5,5,0,0,0,.73-2.39c.08-1,.12-2.18.12-3.49V171h7.34v2.24a39.78,39.78,0,0,1-.41,6,11.91,11.91,0,0,1-1.51,4.45,7.12,7.12,0,0,1-3.15,2.78A12.76,12.76,0,0,1,34.05,187.39Zm-2.94-25.34h6v-5.37a27.11,27.11,0,0,0-.19-3.54,4.37,4.37,0,0,0-.79-2.17,2.15,2.15,0,0,0-1.79-.73,2.6,2.6,0,0,0-2.17.87,4.69,4.69,0,0,0-.87,2.36,28.86,28.86,0,0,0-.18,3.4Z"/><path class="cls-1" d="M49.74,186.88l-5.63-42h6.25l2.12,17.72,1,9h.17l.93-9L57,144.89h6.61l2.74,17.36,1.17,9.38h.17l.81-9.35,1.88-17.39h6.21l-5.32,42H64.8l-4.25-31.54L56,186.88Z"/><path class="cls-1" d="M86,187.42c-3.38,0-5.89-1-7.53-2.89S76,179.47,76,175.1v-2.72h7v3.39a10.09,10.09,0,0,0,.67,4.17,2.26,2.26,0,0,0,2.18,1.43,2.49,2.49,0,0,0,2.16-1,6.12,6.12,0,0,0,.7-3.39,9.13,9.13,0,0,0-.41-2.71,9.82,9.82,0,0,0-1.26-2.59,13.11,13.11,0,0,0-2.2-2.48l-3.77-3.42a16.1,16.1,0,0,1-3.9-5.08,14.08,14.08,0,0,1-1.28-6q0-5.34,2.5-7.82t7.43-2.48a10.64,10.64,0,0,1,5.29,1.19,7.24,7.24,0,0,1,3.14,3.85,20.11,20.11,0,0,1,1,7.14v2.29H88.66v-2.77a10.83,10.83,0,0,0-.63-4.2,2.19,2.19,0,0,0-2.14-1.43,2.69,2.69,0,0,0-2.18.83,4.76,4.76,0,0,0-.76,2.9,7.36,7.36,0,0,0,.28,2.19,8,8,0,0,0,1,2.1,10.07,10.07,0,0,0,1.72,2l4,3.61a19.65,19.65,0,0,1,4.64,5.9A15.19,15.19,0,0,1,96,176.67c0,3.52-.8,6.2-2.4,8S89.48,187.42,86,187.42Z"/><path class="cls-1" d="M288.05,172.85l-5.58-19.76h3.85l3.56,14.52h.18l3.81-14.52h3.5l3.81,14.53h.17l3.56-14.53h3.85l-5.57,19.76h-3.53l-4-13.87h-.16l-4,13.87Z"/><path class="cls-1" d="M318.33,173.14a7.58,7.58,0,0,1-3.84-.93,6.23,6.23,0,0,1-2.49-2.64,9,9,0,0,1-.86-4,8.82,8.82,0,0,1,.87-4,6.48,6.48,0,0,1,2.45-2.7,6.84,6.84,0,0,1,3.69-1,7.65,7.65,0,0,1,2.59.43,6,6,0,0,1,2.16,1.36,6.34,6.34,0,0,1,1.48,2.33,9.39,9.39,0,0,1,.54,3.36v1.07H312.78V164h8.8a3.73,3.73,0,0,0-.44-1.79A3.13,3.13,0,0,0,320,161a3.36,3.36,0,0,0-1.76-.45,3.46,3.46,0,0,0-1.88.51,3.7,3.7,0,0,0-1.26,1.35,3.94,3.94,0,0,0-.46,1.83v2.06a4.84,4.84,0,0,0,.47,2.21,3.34,3.34,0,0,0,1.32,1.41,3.89,3.89,0,0,0,2,.49,4,4,0,0,0,1.38-.22,3,3,0,0,0,1.07-.64,2.64,2.64,0,0,0,.69-1.05l3.26.37a5.17,5.17,0,0,1-1.17,2.25,5.7,5.7,0,0,1-2.21,1.48A8.33,8.33,0,0,1,318.33,173.14Z"/><path class="cls-1" d="M334,172.85V153.09h3.49v7.39h.14a6.58,6.58,0,0,1,.77-1.15,4.13,4.13,0,0,1,1.33-1.06,4.63,4.63,0,0,1,2.14-.43,5.68,5.68,0,0,1,3.1.87,5.92,5.92,0,0,1,2.2,2.58,9.48,9.48,0,0,1,.82,4.17,9.78,9.78,0,0,1-.8,4.15,6.13,6.13,0,0,1-2.18,2.6,5.62,5.62,0,0,1-3.13.9,4.69,4.69,0,0,1-2.11-.42,4.38,4.38,0,0,1-1.35-1,6.37,6.37,0,0,1-.79-1.14h-.2v2.33Zm3.42-7.41a7.16,7.16,0,0,0,.41,2.52,3.77,3.77,0,0,0,1.19,1.68,3,3,0,0,0,1.89.6,3,3,0,0,0,1.93-.62,3.72,3.72,0,0,0,1.19-1.71,7.23,7.23,0,0,0,.4-2.47,6.88,6.88,0,0,0-.4-2.45,3.54,3.54,0,0,0-1.18-1.68,3,3,0,0,0-1.94-.61,3.12,3.12,0,0,0-1.91.59,3.59,3.59,0,0,0-1.18,1.65A7.24,7.24,0,0,0,337.44,165.44Z"/><path class="cls-1" d="M350.61,172.85V158H354v2.47h.15a3.67,3.67,0,0,1,1.4-2,3.77,3.77,0,0,1,2.26-.7c.19,0,.41,0,.65,0s.44,0,.6.07v3.22a3.12,3.12,0,0,0-.7-.14,5.88,5.88,0,0,0-.92-.07,3.54,3.54,0,0,0-1.71.41,3,3,0,0,0-1.19,1.14,3.18,3.18,0,0,0-.44,1.67v8.71Z"/><path class="cls-1" d="M361.47,157.22a2,2,0,0,1-1.43-.56,1.74,1.74,0,0,1-.6-1.33A1.77,1.77,0,0,1,360,154a2,2,0,0,1,1.43-.55,2,2,0,0,1,1.43.55,1.77,1.77,0,0,1,.6,1.35,1.74,1.74,0,0,1-.6,1.33A2,2,0,0,1,361.47,157.22Zm-1.76,15.63V158h3.5v14.82Z"/><path class="cls-1" d="M369.91,164.17v8.68h-3.49V158h3.33v2.52h.18a4.22,4.22,0,0,1,1.63-2,5,5,0,0,1,2.79-.73,5.29,5.29,0,0,1,2.68.65,4.46,4.46,0,0,1,1.77,1.9,6.51,6.51,0,0,1,.62,3v9.44h-3.49V164a3.31,3.31,0,0,0-.77-2.32,2.71,2.71,0,0,0-2.12-.84,3.19,3.19,0,0,0-1.62.4,2.86,2.86,0,0,0-1.11,1.15A3.81,3.81,0,0,0,369.91,164.17Z"/><path class="cls-1" d="M387.76,178.72a9.18,9.18,0,0,1-3.24-.51,5.8,5.8,0,0,1-2.17-1.36,4.79,4.79,0,0,1-1.14-1.88l3.15-.76a3.38,3.38,0,0,0,.62.86,3,3,0,0,0,1.09.72,4.59,4.59,0,0,0,1.74.28,4,4,0,0,0,2.46-.72,2.73,2.73,0,0,0,1-2.36v-2.8h-.17a5.21,5.21,0,0,1-.79,1.11,4.23,4.23,0,0,1-1.36.95,5.08,5.08,0,0,1-2.12.39,6,6,0,0,1-3.09-.81,5.62,5.62,0,0,1-2.2-2.41,8.76,8.76,0,0,1-.82-4,9.28,9.28,0,0,1,.82-4.12,6,6,0,0,1,2.2-2.56,5.73,5.73,0,0,1,3.1-.87,4.7,4.7,0,0,1,2.15.43,4.28,4.28,0,0,1,1.34,1.06,6.06,6.06,0,0,1,.77,1.15h.19V158h3.44v15.06a5.24,5.24,0,0,1-.9,3.15,5.5,5.5,0,0,1-2.48,1.86A9.75,9.75,0,0,1,387.76,178.72Zm0-8.82a3.09,3.09,0,0,0,3.08-2.1,6.5,6.5,0,0,0,.41-2.43,7,7,0,0,0-.4-2.45,3.53,3.53,0,0,0-1.18-1.63,3.08,3.08,0,0,0-1.91-.59,3,3,0,0,0-1.94.61,3.58,3.58,0,0,0-1.18,1.66,6.71,6.71,0,0,0-.4,2.4,6.63,6.63,0,0,0,.4,2.38,3.44,3.44,0,0,0,1.19,1.58A3.2,3.2,0,0,0,387.78,169.9Z"/><path class="cls-1" d="M404.29,172.85V158h3.34v2.52h.17a4,4,0,0,1,1.53-2,4.49,4.49,0,0,1,2.56-.71,4.35,4.35,0,0,1,2.54.72,3.88,3.88,0,0,1,1.46,2h.16a4.1,4.1,0,0,1,1.66-2,5.16,5.16,0,0,1,2.79-.73,4.55,4.55,0,0,1,3.34,1.29,5.11,5.11,0,0,1,1.29,3.77v9.95h-3.5v-9.41a2.55,2.55,0,0,0-.74-2,2.6,2.6,0,0,0-1.79-.64,2.52,2.52,0,0,0-2,.78,2.92,2.92,0,0,0-.71,2.05v9.24H413V163.3a2.36,2.36,0,0,0-2.49-2.52,2.59,2.59,0,0,0-1.37.38,2.68,2.68,0,0,0-1,1.07,3.33,3.33,0,0,0-.37,1.61v9Z"/><path class="cls-1" d="M431.27,173.15a6,6,0,0,1-2.53-.51,4.08,4.08,0,0,1-1.78-1.5,4.41,4.41,0,0,1-.65-2.45,4.26,4.26,0,0,1,.46-2.07A3.57,3.57,0,0,1,428,165.3a6.68,6.68,0,0,1,1.81-.74,15.44,15.44,0,0,1,2.09-.38l2.11-.24a3.13,3.13,0,0,0,1.18-.35.81.81,0,0,0,.37-.74v0a2.19,2.19,0,0,0-.64-1.69,2.63,2.63,0,0,0-1.86-.6,3.36,3.36,0,0,0-2,.56,2.75,2.75,0,0,0-1,1.32l-3.27-.46a5.34,5.34,0,0,1,1.28-2.27,5.71,5.71,0,0,1,2.17-1.37,8.5,8.5,0,0,1,2.84-.45,9.11,9.11,0,0,1,2.13.25,6,6,0,0,1,1.94.82,4.26,4.26,0,0,1,1.41,1.56,5.09,5.09,0,0,1,.54,2.46v9.92h-3.36v-2h-.12a4.19,4.19,0,0,1-.89,1.16,4.41,4.41,0,0,1-1.44.86A5.86,5.86,0,0,1,431.27,173.15Zm.91-2.57a3.74,3.74,0,0,0,1.82-.42,3,3,0,0,0,1.19-1.11,2.9,2.9,0,0,0,.42-1.52v-1.74a1.68,1.68,0,0,1-.55.25,8.06,8.06,0,0,1-.87.2l-1,.15-.82.12a6.1,6.1,0,0,0-1.4.35,2.25,2.25,0,0,0-1,.67,1.64,1.64,0,0,0-.36,1.1,1.66,1.66,0,0,0,.7,1.46A3.06,3.06,0,0,0,432.18,170.58Z"/><path class="cls-1" d="M442.24,172.85V158h3.39v2.47h.15a3.65,3.65,0,0,1,1.39-2,3.82,3.82,0,0,1,2.27-.7c.19,0,.41,0,.65,0s.44,0,.6.07v3.22a3.12,3.12,0,0,0-.7-.14,5.88,5.88,0,0,0-.92-.07,3.54,3.54,0,0,0-1.71.41,3,3,0,0,0-1.19,1.14,3.18,3.18,0,0,0-.44,1.67v8.71Z"/><path class="cls-1" d="M451.34,172.85V153.09h3.5v19.76Zm3.19-4.65V164h.56L460.4,158h4.09l-6.56,7.29h-.72Zm6.11,4.65-4.82-6.74,2.35-2.47,6.65,9.21Z"/><path class="cls-1" d="M473.66,173.14a7.6,7.6,0,0,1-3.85-.93,6.27,6.27,0,0,1-2.48-2.64,9.77,9.77,0,0,1,0-8.06,6.55,6.55,0,0,1,2.45-2.7,6.88,6.88,0,0,1,3.7-1,7.69,7.69,0,0,1,2.59.43,6.13,6.13,0,0,1,2.16,1.36,6.34,6.34,0,0,1,1.48,2.33,9.39,9.39,0,0,1,.54,3.36v1.07H468.1V164h8.8a3.85,3.85,0,0,0-.43-1.79,3.22,3.22,0,0,0-1.19-1.24,3.36,3.36,0,0,0-1.76-.45,3.46,3.46,0,0,0-1.88.51,3.7,3.7,0,0,0-1.26,1.35,3.94,3.94,0,0,0-.46,1.83v2.06a4.71,4.71,0,0,0,.48,2.21,3.22,3.22,0,0,0,1.32,1.41,3.86,3.86,0,0,0,2,.49,4,4,0,0,0,1.38-.22,3,3,0,0,0,1.07-.64,2.62,2.62,0,0,0,.68-1.05l3.26.37a5,5,0,0,1-1.17,2.25,5.66,5.66,0,0,1-2.2,1.48A8.41,8.41,0,0,1,473.66,173.14Z"/><path class="cls-1" d="M490.22,158v2.7H481.7V158Zm-6.41-3.55h3.49v13.91a2.12,2.12,0,0,0,.22,1.08,1.06,1.06,0,0,0,.57.5,2.22,2.22,0,0,0,.79.14,3.64,3.64,0,0,0,.6-.05,2.85,2.85,0,0,0,.42-.09l.59,2.74c-.18.06-.45.13-.79.21a7.19,7.19,0,0,1-1.26.13,5.48,5.48,0,0,1-2.37-.4,3.64,3.64,0,0,1-1.66-1.36,4,4,0,0,1-.6-2.32Z"/><path class="cls-1" d="M504.26,162l-3.19.34a2.57,2.57,0,0,0-.46-.9,2.33,2.33,0,0,0-.9-.69,3.28,3.28,0,0,0-1.37-.26,3.41,3.41,0,0,0-1.83.47,1.39,1.39,0,0,0-.72,1.23,1.27,1.27,0,0,0,.47,1.05,4.16,4.16,0,0,0,1.62.67l2.53.54a6.48,6.48,0,0,1,3.13,1.43,3.49,3.49,0,0,1,1,2.58,4.05,4.05,0,0,1-.82,2.47,5.31,5.31,0,0,1-2.23,1.66,8.42,8.42,0,0,1-3.28.6,7.57,7.57,0,0,1-4.38-1.14,4.57,4.57,0,0,1-2-3.19l3.4-.33a2.42,2.42,0,0,0,1,1.51,3.42,3.42,0,0,0,2,.52,3.53,3.53,0,0,0,2-.52,1.5,1.5,0,0,0,.76-1.26,1.35,1.35,0,0,0-.49-1A3.49,3.49,0,0,0,499,167l-2.53-.53a6,6,0,0,1-3.15-1.5,3.66,3.66,0,0,1-1-2.68,3.9,3.9,0,0,1,.75-2.38,4.93,4.93,0,0,1,2.11-1.56,8.26,8.26,0,0,1,3.14-.55,6.7,6.7,0,0,1,4.1,1.11A4.66,4.66,0,0,1,504.26,162Z"/><path class="cls-1" d="M519.91,173.14a7.15,7.15,0,0,1-3.81-1,6.58,6.58,0,0,1-2.44-2.7,9.64,9.64,0,0,1,0-8,6.42,6.42,0,0,1,2.45-2.7,7,7,0,0,1,3.76-1,7.41,7.41,0,0,1,3.2.66,5.42,5.42,0,0,1,3.17,4.66h-3.34a3.18,3.18,0,0,0-1-1.79,2.81,2.81,0,0,0-2-.72,3.13,3.13,0,0,0-1.88.58,3.71,3.71,0,0,0-1.26,1.64,6.64,6.64,0,0,0-.45,2.57,7,7,0,0,0,.44,2.6,3.86,3.86,0,0,0,1.25,1.67,3.15,3.15,0,0,0,1.9.58,3.07,3.07,0,0,0,1.38-.29,2.68,2.68,0,0,0,1-.86,3.17,3.17,0,0,0,.57-1.36h3.34a5.72,5.72,0,0,1-.93,2.79,5.36,5.36,0,0,1-2.18,1.89A7.3,7.3,0,0,1,519.91,173.14Z"/><path class="cls-1" d="M543.22,173.14a7.19,7.19,0,0,1-3.77-1,6.36,6.36,0,0,1-2.46-2.67,8.74,8.74,0,0,1-.87-4,8.89,8.89,0,0,1,.87-4,6.45,6.45,0,0,1,2.46-2.68,7.94,7.94,0,0,1,7.53,0,6.53,6.53,0,0,1,2.47,2.68,8.89,8.89,0,0,1,.87,4,8.74,8.74,0,0,1-.87,4,6.45,6.45,0,0,1-2.47,2.67A7.15,7.15,0,0,1,543.22,173.14Zm0-2.8a3,3,0,0,0,2-.65,3.94,3.94,0,0,0,1.18-1.75,7.32,7.32,0,0,0,.39-2.45,7.4,7.4,0,0,0-.39-2.47,4,4,0,0,0-1.18-1.76,3,3,0,0,0-2-.66,3,3,0,0,0-2,.66,4,4,0,0,0-1.18,1.76,7.4,7.4,0,0,0-.39,2.47,7.32,7.32,0,0,0,.39,2.45,3.86,3.86,0,0,0,1.18,1.75A3.09,3.09,0,0,0,543.24,170.34Z"/><path class="cls-1" d="M564.61,162l-3.19.34a2.44,2.44,0,0,0-.47-.9,2.3,2.3,0,0,0-.89-.69,3.28,3.28,0,0,0-1.37-.26,3.36,3.36,0,0,0-1.83.47,1.42,1.42,0,0,0-.73,1.23,1.31,1.31,0,0,0,.48,1.05,4.16,4.16,0,0,0,1.62.67l2.53.54a6.48,6.48,0,0,1,3.13,1.43,3.44,3.44,0,0,1,1,2.58,4,4,0,0,1-.81,2.47,5.31,5.31,0,0,1-2.23,1.66,8.47,8.47,0,0,1-3.29.6,7.61,7.61,0,0,1-4.38-1.14,4.59,4.59,0,0,1-2-3.19l3.4-.33a2.38,2.38,0,0,0,1,1.51,3.42,3.42,0,0,0,2,.52,3.55,3.55,0,0,0,2-.52,1.5,1.5,0,0,0,.76-1.26,1.35,1.35,0,0,0-.49-1,3.49,3.49,0,0,0-1.51-.64l-2.53-.53a6,6,0,0,1-3.16-1.5,3.65,3.65,0,0,1-1-2.68,3.78,3.78,0,0,1,.75-2.38,4.87,4.87,0,0,1,2.11-1.56,8.25,8.25,0,0,1,3.13-.55,6.71,6.71,0,0,1,4.11,1.11A4.66,4.66,0,0,1,564.61,162Z"/><path class="cls-1" d="M574,173.14a7.53,7.53,0,0,1-3.84-.93,6.23,6.23,0,0,1-2.49-2.64,8.84,8.84,0,0,1-.87-4,8.69,8.69,0,0,1,.88-4,6.46,6.46,0,0,1,2.44-2.7,6.88,6.88,0,0,1,3.7-1,7.69,7.69,0,0,1,2.59.43,6.13,6.13,0,0,1,2.16,1.36A6.34,6.34,0,0,1,580,162a9.39,9.39,0,0,1,.54,3.36v1.07H568.43V164h8.8a3.73,3.73,0,0,0-.43-1.79,3.2,3.2,0,0,0-1.18-1.24,3.39,3.39,0,0,0-1.76-.45,3.47,3.47,0,0,0-1.89.51,3.59,3.59,0,0,0-1.25,1.35,3.82,3.82,0,0,0-.46,1.83v2.06a4.71,4.71,0,0,0,.47,2.21,3.28,3.28,0,0,0,1.32,1.41,3.89,3.89,0,0,0,2,.49,4,4,0,0,0,1.38-.22,3,3,0,0,0,1.07-.64,2.75,2.75,0,0,0,.69-1.05l3.26.37a5.09,5.09,0,0,1-1.18,2.25,5.66,5.66,0,0,1-2.2,1.48A8.37,8.37,0,0,1,574,173.14Z"/><path class="cls-1" d="M583.15,172.85V158h3.39v2.47h.16a3.65,3.65,0,0,1,1.39-2,3.79,3.79,0,0,1,2.26-.7c.2,0,.41,0,.65,0s.45,0,.61.07v3.22a3.12,3.12,0,0,0-.7-.14,6,6,0,0,0-.92-.07,3.61,3.61,0,0,0-1.72.41,3.1,3.1,0,0,0-1.19,1.14,3.17,3.17,0,0,0-.43,1.67v8.71Z"/><path class="cls-1" d="M534.85,170a2.85,2.85,0,0,1-.42.09,3.64,3.64,0,0,1-.6.05A2.22,2.22,0,0,1,533,170a1.06,1.06,0,0,1-.57-.5,2.12,2.12,0,0,1-.22-1.08V154.48h0v-1.39h-3.49l0,1.39h0V169a4,4,0,0,0,.6,2.32,3.64,3.64,0,0,0,1.66,1.36,5.48,5.48,0,0,0,2.37.4,7.19,7.19,0,0,0,1.26-.13c.34-.08.61-.15.79-.21Z"/></g></g></svg>